<svg width="23" height="24" viewBox="0 0 23 24" fill="none" xmlns="http://www.w3.org/2000/svg">
<path fill-rule="evenodd" clip-rule="evenodd" d="M15.9364 2.73508V3.76997C18.7162 4.06186 20.1382 5.72477 20.1382 8.71446V16.9848C20.1382 20.3106 18.3868 22 14.9402 22H8.70581C5.25923 22 3.50781 20.3106 3.50781 16.9848V8.71446C3.50781 6.72428 4.13446 5.30019 5.41991 4.46874C5.62254 4.31904 5.88469 4.30859 6.09662 4.44176C6.30856 4.57494 6.43371 4.82876 6.41969 5.09698C6.40567 5.3652 6.2549 5.60155 6.03049 5.70708C5.17889 6.25548 4.77719 7.21077 4.77719 8.71446V8.97981H16.4988C16.8493 8.97981 17.1335 9.29266 17.1335 9.67859C17.1335 10.0645 16.8493 10.3774 16.4988 10.3774H4.77719V16.9848C4.77719 19.5233 5.91801 20.5759 8.70581 20.5936H14.9402C17.6878 20.5936 18.8608 19.5145 18.8608 16.9759V8.70561C18.8608 6.4943 17.969 5.42403 15.9364 5.16752V5.83975C15.8895 6.19806 15.6046 6.45964 15.276 6.44599C14.9475 6.43234 14.6812 6.14786 14.659 5.78668V2.67316C14.6652 2.48618 14.7393 2.30977 14.8647 2.18341C14.99 2.05706 15.1561 1.99132 15.3258 2.00092C15.6758 2.02461 15.9457 2.34923 15.9364 2.73508ZM8.78221 6.29279C8.66144 6.42409 8.49793 6.49667 8.32821 6.4943C7.98083 6.48465 7.70509 6.16923 7.7096 5.78668V2.73508C7.74612 2.37709 8.0211 2.10645 8.3483 2.10645C8.6755 2.10645 8.95048 2.37709 8.987 2.73508V3.69921H12.6184C12.9689 3.69921 13.2531 4.01206 13.2531 4.39798C13.2531 4.7839 12.9689 5.09675 12.6184 5.09675H8.97093V5.79553C8.97095 5.9824 8.90298 6.16149 8.78221 6.29279ZM15.6954 12.6152C15.2517 12.6152 14.892 13.0112 14.892 13.4997C14.892 13.9882 15.2517 14.3843 15.6954 14.3843C16.1391 14.3843 16.4988 13.9882 16.4988 13.4997C16.4988 13.2636 16.4131 13.0373 16.2607 12.8711C16.1082 12.705 15.9018 12.6128 15.6874 12.6152H15.6954ZM11.0357 13.4997C11.0357 13.0112 11.3954 12.6152 11.8391 12.6152C12.2828 12.6152 12.6425 13.0112 12.6425 13.4997C12.6425 13.9882 12.2828 14.3843 11.8391 14.3843C11.3954 14.3843 11.0357 13.9882 11.0357 13.4997ZM7.99079 12.6152C7.54708 12.6152 7.18739 13.0112 7.18739 13.4997C7.18739 13.9882 7.54708 14.3843 7.99079 14.3843C8.43449 14.3843 8.79419 13.9882 8.79419 13.4997C8.7942 13.2636 8.70845 13.0373 8.55604 12.8711C8.40363 12.705 8.19722 12.6128 7.98275 12.6152H7.99079ZM14.892 17.082C14.892 16.5935 15.2517 16.1975 15.6954 16.1975H15.6874C15.9018 16.1952 16.1082 16.2873 16.2607 16.4534C16.4131 16.6196 16.4988 16.8459 16.4988 17.082C16.4988 17.5706 16.1391 17.9666 15.6954 17.9666C15.2517 17.9666 14.892 17.5706 14.892 17.082ZM11.8391 16.1975C11.3954 16.1975 11.0357 16.5935 11.0357 17.082C11.0357 17.5706 11.3954 17.9666 11.8391 17.9666C12.2828 17.9666 12.6425 17.5706 12.6425 17.082C12.6425 16.5935 12.2828 16.1975 11.8391 16.1975ZM7.18739 17.082C7.18739 16.5935 7.54708 16.1975 7.99079 16.1975H7.98275C8.19722 16.1952 8.40363 16.2873 8.55604 16.4534C8.70845 16.6196 8.7942 16.8459 8.79419 17.082C8.79419 17.5706 8.43449 17.9666 7.99079 17.9666C7.54708 17.9666 7.18739 17.5706 7.18739 17.082Z" fill="#616164"/>
</svg>
