<svg width="18" height="17" viewBox="0 0 18 17" fill="none" xmlns="http://www.w3.org/2000/svg">
<path fill-rule="evenodd" clip-rule="evenodd" d="M10.8173 8.50003L14.1508 5.35172C14.6529 4.87752 14.6529 4.10867 14.1508 3.63446C13.6487 3.16026 12.8347 3.16026 12.3326 3.63446L8.99906 6.78277L5.66555 3.63446C5.16345 3.16026 4.34938 3.16026 3.84728 3.63446C3.34518 4.10867 3.34518 4.87752 3.84728 5.35172L7.18078 8.50003L3.84728 11.6483C3.34518 12.1225 3.34518 12.8914 3.84728 13.3656C4.34938 13.8398 5.16345 13.8398 5.66555 13.3656L8.99906 10.2173L12.3326 13.3656C12.8347 13.8398 13.6487 13.8398 14.1508 13.3656C14.6529 12.8914 14.6529 12.1225 14.1508 11.6483L10.8173 8.50003Z" fill="#6D778B"/>
</svg>
