<svg width="16" height="16" viewBox="0 0 16 16" fill="none" xmlns="http://www.w3.org/2000/svg">
<path d="M14.6667 0H0.611111C0.27309 0 0 0.270675 0 0.605706V14.5369C0 14.872 0.27309 15.1426 0.611111 15.1426H14.6667C15.0047 15.1426 15.2778 14.872 15.2778 14.5369V0.605706C15.2778 0.270675 15.0047 0 14.6667 0ZM12.9021 4.41976H11.6818C10.725 4.41976 10.5398 4.87025 10.5398 5.53274V6.99212H12.8238L12.5259 9.27676H10.5398V15.1426H8.15833V9.27866H6.16649V6.99212H8.15833V5.3075C8.15833 3.3522 9.36337 2.28654 11.1241 2.28654C11.9682 2.28654 12.692 2.349 12.904 2.3774V4.41976H12.9021Z" fill="#AAAAAA"/>
</svg>
