<svg width="25" height="25" viewBox="0 0 25 25" fill="none" xmlns="http://www.w3.org/2000/svg">
<path fill-rule="evenodd" clip-rule="evenodd" d="M8.33333 9.375C8.33333 8.26993 8.77232 7.21012 9.55372 6.42872C10.3351 5.64732 11.3949 5.20833 12.5 5.20833C13.6051 5.20833 14.6649 5.64732 15.4463 6.42872C16.2277 7.21012 16.6667 8.26993 16.6667 9.375C16.6667 10.4801 16.2277 11.5399 15.4463 12.3213C14.6649 13.1027 13.6051 13.5417 12.5 13.5417C11.3949 13.5417 10.3351 13.1027 9.55372 12.3213C8.77232 11.5399 8.33333 10.4801 8.33333 9.375V9.375ZM16.4833 14.1906C17.4745 13.3707 18.1885 12.2649 18.528 11.0241C18.8674 9.78337 18.8157 8.4681 18.38 7.25779C17.9443 6.04749 17.1457 5.00111 16.0933 4.26145C15.0408 3.52179 13.7858 3.12488 12.4995 3.12488C11.2131 3.12488 9.95811 3.52179 8.90568 4.26145C7.85326 5.00111 7.05469 6.04749 6.61896 7.25779C6.18323 8.4681 6.13156 9.78337 6.47101 11.0241C6.81045 12.2649 7.52447 13.3707 8.51562 14.1906C5.19375 15.3604 3.125 17.9656 3.125 20.8333C3.125 21.1096 3.23475 21.3746 3.4301 21.5699C3.62545 21.7653 3.8904 21.875 4.16667 21.875C4.44293 21.875 4.70789 21.7653 4.90324 21.5699C5.09859 21.3746 5.20833 21.1096 5.20833 20.8333C5.20833 18.4687 7.66146 15.625 12.5 15.625C17.3385 15.625 19.7917 18.4687 19.7917 20.8333C19.7917 21.1096 19.9014 21.3746 20.0968 21.5699C20.2921 21.7653 20.5571 21.875 20.8333 21.875C21.1096 21.875 21.3746 21.7653 21.5699 21.5699C21.7653 21.3746 21.875 21.1096 21.875 20.8333C21.875 17.9656 19.8083 15.3604 16.4833 14.1906Z" fill="#201F25"/>
</svg>
