<svg width="40" height="39" viewBox="0 0 40 39" fill="none" xmlns="http://www.w3.org/2000/svg">
<path d="M0.670822 33.5762L0.211792 33.3787L0.67083 33.5762C1.23907 32.2554 2.18656 31.1665 3.53538 30.3093C4.42806 29.742 5.50075 29.2916 6.63526 28.8734C7.06304 28.7157 7.5061 28.5605 7.94961 28.4052C8.65668 28.1575 9.36486 27.9094 10.014 27.6503C11.0793 27.2251 12.0821 26.7354 12.8219 26.0808C13.5795 25.4105 14.0724 24.5554 14.0724 23.4398C14.0724 22.3172 13.643 20.9586 12.8147 19.7539L12.4274 20.0202L12.8147 19.7539C12.3336 19.0543 11.9867 18.6226 11.5293 18.0533C11.2385 17.6913 10.9029 17.2737 10.4598 16.6962C9.38079 15.2901 9.0034 13.1688 9.0034 12.098C9.0034 11.8705 9.04255 11.7692 9.0655 11.7266C9.08641 11.6878 9.11372 11.6583 9.18667 11.6055C9.19394 11.6002 9.20403 11.5933 9.21636 11.5848C9.28875 11.5351 9.43826 11.4325 9.54603 11.3027C9.7043 11.1122 9.78326 10.8768 9.78326 10.5899H9.78331L9.78322 10.5831C9.75621 8.57909 9.88242 6.90121 10.4485 5.4864C11.0052 4.09526 12.0038 2.9194 13.8085 1.95304L13.8085 1.95303C14.1171 1.78778 14.6984 1.63847 15.361 1.53233C16.0075 1.42878 16.6602 1.37696 17.0679 1.37696H17.0932L17.1184 1.3744C17.44 1.34175 17.6915 1.24005 17.878 1.03573C17.9581 0.947893 18.0102 0.857325 18.0412 0.802466C18.0485 0.789624 18.0547 0.778505 18.0602 0.768744C18.0827 0.728717 18.0923 0.711521 18.1062 0.691977C18.1067 0.691304 18.1072 0.690581 18.1078 0.68981C18.1188 0.674009 18.1438 0.637988 18.2649 0.597745C18.4154 0.547707 18.6924 0.5 19.2009 0.5C21.2117 0.5 23.9423 1.3803 25.2401 4.02247C26.6014 6.79377 26.7199 9.85646 26.7199 10.5857C26.7199 10.873 26.7984 11.1086 26.9561 11.2997C27.064 11.4304 27.2133 11.5335 27.286 11.5836C27.2983 11.5921 27.3084 11.5991 27.3158 11.6044C27.3891 11.6577 27.4166 11.6874 27.4376 11.7264C27.4606 11.7692 27.4998 11.8705 27.4998 12.098C27.4998 13.1804 27.1712 15.2935 26.0735 16.6919C25.6568 17.2227 25.3348 17.6179 25.0573 17.9585C24.5547 18.5752 24.1979 19.0131 23.6885 19.7539C22.9634 20.8086 22.5451 21.9599 22.4511 22.9981C22.4459 23.0139 22.4375 23.0369 22.4254 23.0674C22.398 23.1366 22.359 23.2258 22.3145 23.3201C22.2701 23.4141 22.2228 23.5078 22.1798 23.5864C22.1582 23.6257 22.139 23.659 22.1227 23.6855C22.1146 23.6986 22.1078 23.709 22.1025 23.717L22.0961 23.7261L22.0943 23.7286C22.0939 23.7291 22.0937 23.7294 22.0937 23.7294L22.0937 23.7294C20.6459 25.5903 19.7852 27.9141 19.7852 30.4339C19.7852 32.443 20.3324 34.3281 21.2887 35.9533C21.2981 35.9694 21.3142 36.0117 21.3109 36.0894C21.3076 36.166 21.2858 36.2551 21.2459 36.3396C21.2057 36.425 21.1562 36.4864 21.1144 36.5212C21.0876 36.5435 21.0718 36.5489 21.0672 36.55H2.71035C1.47829 36.55 0.5 35.5778 0.5 34.4035C0.499994 34.1198 0.557955 33.8385 0.670822 33.5762ZM22.4566 22.9801C22.4567 22.9799 22.4564 22.9813 22.4554 22.9844C22.4561 22.9818 22.4565 22.9803 22.4566 22.9801Z" fill="#68C5CB" stroke="white"/>
<path d="M33.495 32.68L33.4928 35.1013C33.4928 35.1013 33.4928 35.1013 33.4928 35.1014C33.4921 35.9278 32.8079 36.5757 31.9915 36.575L33.495 32.68ZM33.495 32.68L35.9912 32.6822C36.8077 32.6829 37.4918 32.0349 37.4926 31.2085C37.4934 30.3821 36.8104 29.7329 35.9939 29.7322C35.9939 29.7322 35.9939 29.7322 35.9939 29.7322L33.4977 29.73L33.5 27.3087C33.5 27.3087 33.5 27.3087 33.5 27.3087C33.5007 26.4822 32.8177 25.833 32.0013 25.8324L33.495 32.68ZM30.4978 29.7274L30.5 27.306C30.5 27.306 30.5 27.306 30.5 27.306C30.5007 26.4796 31.1849 25.8316 32.0013 25.8324L30.4978 29.7274ZM30.4978 29.7274L28.0015 29.7252C28.0015 29.7252 28.0015 29.7252 28.0015 29.7252C27.1851 29.7245 26.5009 30.3724 26.5002 31.1988L30.4978 29.7274ZM30.4951 32.6774L27.9989 32.6752C27.9989 32.6752 27.9989 32.6752 27.9989 32.6752C27.1824 32.6745 26.4994 32.0253 26.5002 31.1989L30.4951 32.6774ZM30.4951 32.6774L30.4928 35.0987C30.4928 35.0987 30.4928 35.0987 30.4928 35.0987C30.4921 35.9252 31.1751 36.5743 31.9915 36.575L30.4951 32.6774ZM31.9999 38.5C27.8458 38.5 24.5 35.2198 24.5 31.2C24.5 27.1802 27.8459 23.9 31.9999 23.9C36.154 23.9 39.4999 27.1802 39.4999 31.2C39.4999 35.2199 36.1541 38.5 31.9999 38.5Z" fill="#68C5CB" stroke="white"/>
</svg>
