<svg width="28" height="25" viewBox="0 0 28 25" fill="none" xmlns="http://www.w3.org/2000/svg">
<path fill-rule="evenodd" clip-rule="evenodd" d="M18.7268 5.21336C17.898 5.21336 17.1031 5.5426 16.5171 6.12865C15.931 6.7147 15.6018 7.50955 15.6018 8.33836C15.6018 9.16716 15.931 9.96201 16.5171 10.5481C17.1031 11.1341 17.898 11.4634 18.7268 11.4634C19.5556 11.4634 20.3505 11.1341 20.9365 10.5481C21.5226 9.96201 21.8518 9.16716 21.8518 8.33836C21.8518 7.50955 21.5226 6.7147 20.9365 6.12865C20.3505 5.5426 19.5556 5.21336 18.7268 5.21336ZM13.5185 8.33836C13.5185 7.48935 13.726 6.65322 14.1231 5.90277C14.5201 5.15232 15.0946 4.51031 15.7964 4.03263C16.4983 3.55496 17.3063 3.2561 18.1501 3.16209C18.9939 3.06809 19.8479 3.18177 20.6377 3.49326C21.4275 3.80474 22.1291 4.30458 22.6816 4.94924C23.2341 5.59391 23.6205 6.36385 23.8074 7.19204C23.9943 8.02022 23.9759 8.88153 23.7537 9.70096C23.5316 10.5204 23.1126 11.2731 22.5331 11.8936C24.3002 12.4684 25.828 13.611 26.8789 15.1436C27.0255 15.3719 27.0772 15.6484 27.0231 15.9142C26.9689 16.1801 26.8132 16.4143 26.589 16.5671C26.3648 16.7199 26.0899 16.7792 25.8226 16.7324C25.5554 16.6856 25.317 16.5364 25.1581 16.3165C24.1414 14.8248 22.2872 13.5467 19.7685 13.5467C15.7747 13.5467 13.5185 16.7488 13.5185 18.755C13.5185 19.0313 13.4087 19.2962 13.2134 19.4916C13.018 19.6869 12.7531 19.7967 12.4768 19.7967C12.2005 19.7967 11.9356 19.6869 11.7402 19.4916C11.5449 19.2962 11.4351 19.0313 11.4351 18.755C11.4351 18.0342 11.5997 17.2654 11.9143 16.5081C11.8325 16.4552 11.7585 16.391 11.6945 16.3175C10.8393 15.3446 9.51222 14.5884 7.78931 14.5884C6.06639 14.5884 4.73931 15.3446 3.8841 16.3175C3.69892 16.5142 3.44457 16.6313 3.17471 16.644C2.90486 16.6567 2.64062 16.5641 2.43776 16.3857C2.23489 16.2073 2.10927 15.9571 2.0874 15.6878C2.06554 15.4185 2.14914 15.1513 2.32056 14.9425C2.93568 14.2425 3.68158 13.6692 4.51639 13.255C3.84942 12.6041 3.39162 11.7691 3.20146 10.8568C3.0113 9.94442 3.09743 8.99609 3.44882 8.13292C3.80022 7.26974 4.40094 6.53091 5.17426 6.01078C5.94758 5.49065 6.85839 5.21285 7.79035 5.21285C8.72231 5.21285 9.63312 5.49065 10.4064 6.01078C11.1798 6.53091 11.7805 7.26974 12.1319 8.13292C12.4833 8.99609 12.5694 9.94442 12.3792 10.8568C12.1891 11.7691 11.7313 12.6041 11.0643 13.255C11.787 13.6137 12.4438 14.092 13.007 14.6696C13.7145 13.7794 14.5946 13.0413 15.5945 12.4998C14.9492 12.0149 14.4257 11.3864 14.0654 10.6641C13.705 9.94181 13.5178 9.14554 13.5185 8.33836V8.33836ZM5.18514 9.90086C5.18514 9.21019 5.45951 8.54781 5.94788 8.05943C6.43626 7.57106 7.09864 7.29669 7.78931 7.29669C8.47997 7.29669 9.14235 7.57106 9.63073 8.05943C10.1191 8.54781 10.3935 9.21019 10.3935 9.90086C10.3935 10.5915 10.1191 11.2539 9.63073 11.7423C9.14235 12.2307 8.47997 12.505 7.78931 12.505C7.09864 12.505 6.43626 12.2307 5.94788 11.7423C5.45951 11.2539 5.18514 10.5915 5.18514 9.90086Z" fill="#201F25"/>
</svg>
