<svg width="16" height="16" viewBox="0 0 16 16" fill="none" xmlns="http://www.w3.org/2000/svg">
<path d="M7.97291 5.04647C6.57023 5.04647 5.42553 6.18105 5.42553 7.57132C5.42553 8.9616 6.57023 10.0962 7.97291 10.0962C9.3756 10.0962 10.5203 8.9616 10.5203 7.57132C10.5203 6.18105 9.3756 5.04647 7.97291 5.04647ZM15.6131 7.57132C15.6131 6.52577 15.6227 5.4897 15.5635 4.44604C15.5042 3.23381 15.2252 2.15796 14.3309 1.27151C13.4346 0.383174 12.351 0.108528 11.128 0.0498102C10.0731 -0.00890719 9.02779 0.000563392 7.97482 0.000563392C6.91995 0.000563392 5.87462 -0.00890719 4.82165 0.0498102C3.59861 0.108528 2.51315 0.385068 1.6188 1.27151C0.722531 2.15985 0.445434 3.23381 0.386192 4.44604C0.326951 5.49159 0.336506 6.52767 0.336506 7.57132C0.336506 8.61498 0.326951 9.65295 0.386192 10.6966C0.445434 11.9088 0.724442 12.9847 1.6188 13.8711C2.51506 14.7595 3.59861 15.0341 4.82165 15.0928C5.87653 15.1516 6.92186 15.1421 7.97482 15.1421C9.0297 15.1421 10.075 15.1516 11.128 15.0928C12.351 15.0341 13.4365 14.7576 14.3309 13.8711C15.2271 12.9828 15.5042 11.9088 15.5635 10.6966C15.6246 9.65295 15.6131 8.61687 15.6131 7.57132V7.57132ZM7.97291 11.4561C5.80391 11.4561 4.05343 9.72114 4.05343 7.57132C4.05343 5.42151 5.80391 3.6865 7.97291 3.6865C10.1419 3.6865 11.8924 5.42151 11.8924 7.57132C11.8924 9.72114 10.1419 11.4561 7.97291 11.4561ZM12.0529 4.43468C11.5465 4.43468 11.1376 4.02934 11.1376 3.5274C11.1376 3.02546 11.5465 2.62012 12.0529 2.62012C12.5593 2.62012 12.9683 3.02546 12.9683 3.5274C12.9685 3.64658 12.9449 3.76463 12.8989 3.87477C12.853 3.98492 12.7856 4.085 12.7005 4.16927C12.6155 4.25355 12.5145 4.32038 12.4034 4.36592C12.2923 4.41146 12.1732 4.43483 12.0529 4.43468V4.43468Z" fill="#AAAAAA"/>
</svg>
