<svg width="171" height="155" viewBox="0 0 171 155" fill="none" xmlns="http://www.w3.org/2000/svg">
<g opacity="0.5">
<path d="M171 84.0586L-2 84.0586" stroke="#E3C08D"/>
<path d="M171 76.5083H-2" stroke="#E3C08D"/>
<path d="M171 68.9562H-2" stroke="#E3C08D"/>
<path d="M171 61.4059L-2 61.4059" stroke="#E3C08D"/>
<path d="M171 53.8556L-2 53.8556" stroke="#E3C08D"/>
<path d="M171 46.3053L-2 46.3053" stroke="#E3C08D"/>
<path d="M171 38.7532L-2 38.7532" stroke="#E3C08D"/>
<path d="M171 31.2029L-2 31.2029" stroke="#E3C08D"/>
<path d="M171 23.6526L-2 23.6526" stroke="#E3C08D"/>
<path d="M171 16.1006L-2 16.1006" stroke="#E3C08D"/>
<path d="M171 8.55028L-2 8.55028" stroke="#E3C08D"/>
<path d="M171 0.999985L-2 0.999985" stroke="#E3C08D"/>
<path d="M6.30469 154.533L6.30469 84.0589" stroke="#E3C08D"/>
<path d="M14.6094 154.533L14.6094 84.0589" stroke="#E3C08D"/>
<path d="M22.9141 154.533L22.9141 84.0589" stroke="#E3C08D"/>
<path d="M31.2148 154.533L31.2148 84.0589" stroke="#E3C08D"/>
<path d="M39.5195 154.533L39.5195 84.0589" stroke="#E3C08D"/>
<path d="M47.8242 154.533L47.8242 84.0589" stroke="#E3C08D"/>
<path d="M56.1289 154.533L56.1289 84.0589" stroke="#E3C08D"/>
<path d="M64.4336 154.533L64.4336 84.0589" stroke="#E3C08D"/>
<path d="M72.7344 154.533L72.7344 84.0589" stroke="#E3C08D"/>
<path d="M81.0391 154.533L81.0391 84.0589" stroke="#E3C08D"/>
<path d="M89.3438 154.533L89.3438 84.0589" stroke="#E3C08D"/>
</g>
</svg>
