<svg width="23" height="24" viewBox="0 0 23 24" fill="none" xmlns="http://www.w3.org/2000/svg">
<rect width="22.1738" height="24" transform="translate(0.144531)" fill="white"/>
<path fill-rule="evenodd" clip-rule="evenodd" d="M6.30478 8.00008C6.30478 12.4445 11.2323 16.4445 11.2323 16.4445C11.2323 16.4445 16.1598 12.4445 16.1598 8.00008C16.1598 5.05457 13.9537 2.66675 11.2323 2.66675C8.51091 2.66675 6.30478 5.05457 6.30478 8.00008ZM11.2323 18.0001C11.233 18.0001 11.2218 17.9916 11.1999 17.975C10.9523 17.7866 9.32713 16.55 7.8129 14.6667H5.70266C5.28946 14.6667 4.90379 14.8909 4.67562 15.2638L1.41188 20.5972C1.27828 20.8155 1.20703 21.0715 1.20703 21.3334C1.20703 22.0698 1.75856 22.6667 2.43891 22.6667H20.0118C20.2559 22.6667 20.4944 22.5882 20.6972 22.4413C21.2625 22.0316 21.414 21.2034 21.0354 20.5915L17.7359 15.2582C17.5073 14.8886 17.1233 14.6667 16.7124 14.6667H14.6517C13.1375 16.55 11.5124 17.7866 11.2647 17.975C11.25 17.9861 11.2401 17.9936 11.2355 17.9974C11.2332 17.9992 11.2321 18.0001 11.2323 18.0001ZM6.30478 21.3335V20.0001H16.1598V21.3335H6.30478ZM11.2323 10.0001C12.2528 10.0001 13.0801 9.10465 13.0801 8.00008C13.0801 6.89551 12.2528 6.00008 11.2323 6.00008C10.2118 6.00008 9.38448 6.89551 9.38448 8.00008C9.38448 9.10465 10.2118 10.0001 11.2323 10.0001Z" fill="#616164"/>
</svg>
