<svg width="40" height="26" viewBox="0 0 40 26" fill="none" xmlns="http://www.w3.org/2000/svg">
<path d="M2.53257 0H37.5055C37.9562 0.00918945 38.3849 0.196793 38.6971 0.521973C39.0094 0.847152 39.1796 1.28316 39.1705 1.73389V23.4082C39.1796 23.8589 39.0094 24.2944 38.6971 24.6196C38.3849 24.9448 37.9562 25.1329 37.5055 25.1421H2.53257C2.08185 25.1329 1.65316 24.9448 1.34092 24.6196C1.02868 24.2944 0.858425 23.8589 0.867535 23.4082V1.73389C0.858425 1.28316 1.02868 0.847152 1.34092 0.521973C1.65316 0.196793 2.08185 0.00918945 2.53257 0V0Z" fill="#5870BE"/>
<path d="M17.623 12.5668C17.6234 10.791 18.1504 9.05527 19.1372 7.57897C20.124 6.10266 21.5264 4.95214 23.1671 4.27282C24.8078 3.59349 26.613 3.41596 28.3546 3.76256C30.0962 4.10916 31.696 4.96437 32.9515 6.22008C34.2071 7.4758 35.0622 9.07561 35.4086 10.8172C35.755 12.5589 35.5771 14.3642 34.8976 16.0047C34.2181 17.6453 33.0675 19.0474 31.5911 20.034C30.1147 21.0207 28.3788 21.5475 26.603 21.5477C25.4237 21.5477 24.2558 21.3155 23.1663 20.8641C22.0767 20.4128 21.0867 19.7513 20.2528 18.9173C19.4189 18.0834 18.7575 17.0934 18.3063 16.0038C17.855 14.9142 17.6229 13.7461 17.623 12.5668Z" fill="#FFAF38"/>
<path d="M12.8442 21.5459C11.3131 21.5457 9.80753 21.1541 8.47043 20.4082C7.13333 19.6623 6.00915 18.5868 5.20468 17.2841C4.40022 15.9814 3.94219 14.4949 3.87412 12.9653C3.80604 11.4357 4.13021 9.9139 4.81577 8.54487C5.50132 7.17585 6.52555 6.00524 7.79111 5.14351C9.05666 4.28178 10.5215 3.75772 12.0465 3.62153C13.5715 3.48535 15.106 3.74133 16.5042 4.36519C17.9025 4.98904 19.118 5.9601 20.0352 7.18599H18.8353V7.78609H20.4482C20.5692 7.97709 20.6833 8.17495 20.7893 8.37495H18.2352V8.97505H21.0782C21.1662 9.17505 21.2453 9.37515 21.3153 9.57515H17.6352V10.1748H21.5033C21.9894 11.9487 21.9224 13.829 21.3112 15.5639H17.6352V16.164H21.0742C20.9842 16.371 20.8873 16.5638 20.7893 16.7548H18.2352V17.3549H20.4413C20.3083 17.5649 20.1693 17.766 20.0283 17.955H18.8353V18.5551H19.5352C18.6925 19.4955 17.6611 20.2478 16.5083 20.7631C15.3554 21.2785 14.107 21.545 12.8442 21.5459Z" fill="#E63737"/>
<path d="M2.99241 14.2188L3.5391 9.95883L4.38761 10.0677L5.00886 13.2134C5.0658 13.5062 5.10662 13.7251 5.13134 13.8701C5.19966 13.7213 5.30443 13.5034 5.44564 13.2163L6.84597 10.3832L7.6044 10.4805L7.0577 14.7405L6.5143 14.6708L6.97187 11.1053L5.27641 14.5119L4.76788 14.4467L4.0012 10.662L3.5358 14.2886L2.99241 14.2188ZM9.96301 14.7264C9.74815 14.8662 9.54629 14.9585 9.35743 15.0032C9.1705 15.0481 8.97436 15.0574 8.76901 15.031C8.43 14.9875 8.18001 14.8718 8.01904 14.6837C7.85832 14.4938 7.79449 14.2699 7.82756 14.0123C7.84695 13.8612 7.8985 13.728 7.98222 13.6127C8.06812 13.4957 8.17113 13.4066 8.29124 13.3452C8.4133 13.284 8.54655 13.2431 8.69101 13.2222C8.79716 13.2083 8.9555 13.202 9.16601 13.2034C9.5948 13.2073 9.91343 13.1871 10.1219 13.143C10.1331 13.0715 10.1399 13.0261 10.1423 13.0068C10.1697 12.7937 10.1396 12.6372 10.052 12.5373C9.93345 12.402 9.74246 12.3174 9.479 12.2836C9.23297 12.2521 9.04528 12.2723 8.91592 12.3443C8.78874 12.4146 8.68302 12.5556 8.59875 12.7673L8.09627 12.6319C8.17085 12.419 8.27 12.2525 8.3937 12.1325C8.51765 12.0106 8.68496 11.9267 8.89563 11.8809C9.10655 11.8331 9.34471 11.8263 9.61012 11.8604C9.87358 11.8942 10.0837 11.9526 10.2404 12.0358C10.3971 12.1189 10.5081 12.2129 10.5734 12.3177C10.639 12.4207 10.678 12.5458 10.6906 12.6931C10.6966 12.7845 10.6847 12.9464 10.6549 13.1789L10.5654 13.8763C10.503 14.3625 10.4741 14.6719 10.4788 14.8044C10.4856 14.9353 10.5144 15.064 10.5651 15.1906L10.0188 15.1205C9.97845 15.0051 9.95986 14.8737 9.96301 14.7264ZM10.0693 13.5527C9.86954 13.6058 9.57631 13.6351 9.18965 13.6407C8.97064 13.6441 8.81409 13.6594 8.72001 13.6867C8.62592 13.714 8.54982 13.7623 8.49169 13.8317C8.43381 13.8991 8.39903 13.9783 8.38735 14.0694C8.36945 14.2088 8.40683 14.3318 8.49951 14.4382C8.59413 14.5449 8.74314 14.6112 8.94655 14.6373C9.14802 14.6632 9.33281 14.6426 9.50091 14.5756C9.66927 14.5066 9.80007 14.4003 9.89332 14.2567C9.96467 14.1458 10.0151 13.975 10.0447 13.7445L10.0693 13.5527ZM11.1221 14.3258L11.6498 14.3108C11.6522 14.5218 11.7122 14.691 11.8298 14.8183C11.9493 14.9459 12.1282 15.025 12.3664 15.0556C12.6067 15.0864 12.7911 15.0608 12.9198 14.9789C13.0487 14.895 13.1216 14.7872 13.1385 14.6555C13.1537 14.5373 13.1143 14.4377 13.0203 14.3567C12.9546 14.301 12.7839 14.2191 12.5084 14.1109C12.1372 13.9648 11.8815 13.8473 11.7413 13.7584C11.6033 13.6678 11.5035 13.5556 11.4419 13.4217C11.3825 13.286 11.3625 13.1427 11.3819 12.9916C11.3996 12.854 11.4468 12.7311 11.5237 12.6228C11.6028 12.5129 11.7016 12.4261 11.82 12.3625C11.9091 12.3129 12.026 12.2767 12.1707 12.2539C12.3176 12.2295 12.4714 12.2276 12.6322 12.2482C12.8744 12.2793 13.082 12.3414 13.2552 12.4345C13.4303 12.5278 13.5537 12.6402 13.6254 12.7715C13.6974 12.9008 13.7371 13.0674 13.7444 13.2711L13.2241 13.2752C13.2212 13.1134 13.1693 12.9807 13.0684 12.8772C12.9694 12.7739 12.8182 12.7092 12.6148 12.6831C12.3746 12.6523 12.198 12.67 12.0852 12.7362C11.9723 12.8025 11.909 12.8889 11.8954 12.9954C11.8867 13.0632 11.9001 13.127 11.9358 13.1867C11.9712 13.2484 12.0321 13.3034 12.1184 13.3519C12.1682 13.378 12.3165 13.4423 12.5633 13.5449C12.9206 13.6912 13.1678 13.8056 13.3049 13.8882C13.4442 13.9691 13.5478 14.0749 13.6156 14.2057C13.6835 14.3365 13.706 14.491 13.6832 14.6692C13.6608 14.8436 13.5883 15.0017 13.4658 15.1435C13.3454 15.2836 13.1838 15.384 12.9811 15.4446C12.7786 15.5033 12.5563 15.5171 12.3142 15.486C11.9132 15.4345 11.6178 15.312 11.428 15.1183C11.2401 14.9248 11.1382 14.6606 11.1221 14.3258ZM15.3907 15.3344L15.407 15.8061C15.2558 15.8182 15.122 15.8168 15.0058 15.8019C14.816 15.7775 14.6726 15.7286 14.5757 15.6551C14.4788 15.5816 14.4152 15.4937 14.385 15.3914C14.3551 15.2871 14.3603 15.0781 14.4005 14.7643L14.6284 12.9888L14.2448 12.9396L14.297 12.5327L14.6806 12.582L14.7787 11.8177L15.3391 11.5706L15.2008 12.6487L15.7267 12.7162L15.6745 13.123L15.1485 13.0555L14.917 14.8601C14.8978 15.0092 14.8942 15.1062 14.9062 15.1511C14.9201 15.1962 14.9458 15.234 14.9832 15.2644C15.0226 15.295 15.081 15.3153 15.1585 15.3253C15.2167 15.3327 15.294 15.3358 15.3907 15.3344ZM18.0851 15.1455L18.617 15.2817C18.4913 15.5866 18.3019 15.8114 18.049 15.9561C17.7961 16.1009 17.4905 16.1503 17.1321 16.1043C16.6807 16.0464 16.3401 15.8619 16.1102 15.5508C15.8826 15.238 15.8009 14.8307 15.8653 14.329C15.9319 13.8098 16.1173 13.424 16.4215 13.1716C16.7256 12.9192 17.0908 12.8204 17.517 12.8751C17.9296 12.928 18.2486 13.1117 18.4741 13.4262C18.6996 13.7407 18.7796 14.1526 18.7143 14.6621C18.7103 14.6931 18.7033 14.7395 18.6934 14.8012L16.392 14.5059C16.3679 14.8474 16.4305 15.1193 16.5797 15.3216C16.729 15.5239 16.9325 15.6415 17.1902 15.6746C17.382 15.6992 17.5521 15.6699 17.7006 15.5865C17.8492 15.5032 17.9773 15.3562 18.0851 15.1455ZM16.4763 14.0795L18.1994 14.3007C18.2095 14.0381 18.1686 13.835 18.0768 13.6913C17.936 13.4684 17.733 13.3399 17.4676 13.3059C17.2274 13.2751 17.0146 13.3295 16.8293 13.4691C16.6459 13.609 16.5283 13.8125 16.4763 14.0795ZM19.1519 16.2926L19.5479 13.2066L20.0187 13.267L19.9586 13.7349C20.1068 13.5314 20.2358 13.4012 20.3455 13.3444C20.4571 13.2878 20.5739 13.2674 20.696 13.283C20.8722 13.3057 21.0442 13.3848 21.2119 13.5206L20.9695 13.9827C20.8513 13.8908 20.7283 13.8366 20.6004 13.8202C20.4861 13.8055 20.379 13.8272 20.279 13.8853C20.1792 13.9414 20.1022 14.028 20.0478 14.145C19.9658 14.3236 19.9106 14.5232 19.8823 14.7441L19.6749 16.3597L19.1519 16.2926ZM24.4375 15.4527L24.983 15.6675C24.8054 16.1153 24.5469 16.4415 24.2076 16.6461C23.8704 16.8489 23.48 16.9219 23.0364 16.865C22.5773 16.8061 22.2153 16.6651 21.9505 16.4421C21.6879 16.2174 21.5038 15.9181 21.3982 15.5441C21.2946 15.1705 21.2688 14.7802 21.321 14.3734C21.378 13.9298 21.5118 13.5541 21.7226 13.2464C21.9356 12.937 22.209 12.7171 22.5428 12.5867C22.8787 12.4545 23.2346 12.4126 23.6105 12.4608C24.0367 12.5155 24.3811 12.67 24.6439 12.9243C24.9066 13.1785 25.0699 13.5096 25.1337 13.9175L24.5619 13.9771C24.5029 13.6544 24.3885 13.4103 24.2187 13.2448C24.049 13.0793 23.8217 12.9782 23.5369 12.9417C23.2095 12.8997 22.9253 12.943 22.6844 13.0715C22.4453 13.2004 22.2642 13.3918 22.141 13.6457C22.0181 13.8977 21.9386 14.1642 21.9026 14.4451C21.8561 14.8074 21.8677 15.1308 21.9376 15.4155C22.0095 15.6984 22.1484 15.921 22.354 16.0833C22.5596 16.2455 22.7922 16.3433 23.0518 16.3766C23.3676 16.4172 23.6466 16.3604 23.8889 16.2064C24.1312 16.0524 24.314 15.8012 24.4375 15.4527ZM27.5028 16.9774C27.2879 17.1172 27.086 17.2094 26.8972 17.2541C26.7102 17.299 26.5141 17.3083 26.3088 17.282C25.9697 17.2385 25.7198 17.1227 25.5588 16.9347C25.3981 16.7447 25.3342 16.5209 25.3673 16.2632C25.3867 16.1121 25.4382 15.9789 25.522 15.8636C25.6079 15.7467 25.7109 15.6575 25.831 15.5961C25.953 15.535 26.0863 15.494 26.2308 15.4732C26.3369 15.4592 26.4952 15.4529 26.7058 15.4544C27.1345 15.4582 27.4532 15.438 27.6617 15.3939C27.6728 15.3225 27.6796 15.2771 27.6821 15.2577C27.7094 15.0446 27.6793 14.8881 27.5917 14.7883C27.4732 14.653 27.2822 14.5684 27.0187 14.5346C26.7727 14.503 26.585 14.5232 26.4557 14.5952C26.3285 14.6655 26.2228 14.8066 26.1385 15.0183L25.636 14.8829C25.7106 14.6699 25.8097 14.5035 25.9334 14.3835C26.0574 14.2615 26.2247 14.1777 26.4354 14.1318C26.6463 14.0841 26.8845 14.0772 27.1499 14.1113C27.4133 14.1451 27.6234 14.2036 27.7801 14.2867C27.9368 14.3698 28.0478 14.4638 28.1132 14.5687C28.1787 14.6716 28.2178 14.7968 28.2304 14.9441C28.2364 15.0354 28.2245 15.1973 28.1946 15.4298L28.1051 16.1272C28.0427 16.6135 28.0139 16.9229 28.0185 17.0554C28.0253 17.1862 28.0541 17.315 28.1048 17.4416L27.5585 17.3715C27.5182 17.256 27.4996 17.1247 27.5028 16.9774ZM27.6091 15.8036C27.4093 15.8568 27.1161 15.8861 26.7294 15.8916C26.5104 15.895 26.3538 15.9103 26.2598 15.9377C26.1657 15.965 26.0896 16.0133 26.0314 16.0826C25.9736 16.15 25.9388 16.2292 25.9271 16.3203C25.9092 16.4598 25.9466 16.5827 26.0393 16.6891C26.1339 16.7958 26.2829 16.8622 26.4863 16.8883C26.6878 16.9141 26.8726 16.8935 27.0407 16.8265C27.209 16.7575 27.3398 16.6513 27.4331 16.5077C27.5044 16.3967 27.5549 16.2259 27.5845 15.9954L27.6091 15.8036ZM28.747 17.524L29.143 14.438L29.6138 14.4984L29.5538 14.9662C29.702 14.7627 29.8309 14.6326 29.9406 14.5758C30.0522 14.5192 30.169 14.4988 30.2911 14.5144C30.4674 14.537 30.6394 14.6162 30.807 14.7519L30.5646 15.2141C30.4464 15.1221 30.3234 15.068 30.1956 15.0516C30.0813 15.0369 29.9741 15.0586 29.8741 15.1166C29.7744 15.1728 29.6973 15.2593 29.6429 15.3764C29.5609 15.5549 29.5057 15.7546 29.4774 15.9755L29.2701 17.5911L28.747 17.524ZM32.7367 18.036L32.7867 17.6466C32.5518 17.9276 32.2445 18.0437 31.8648 17.995C31.6187 17.9634 31.4008 17.8665 31.2109 17.7043C31.0229 17.5424 30.8874 17.333 30.8041 17.0761C30.7231 16.8176 30.7029 16.5305 30.7434 16.2147C30.7829 15.9067 30.87 15.6343 31.0048 15.3976C31.1398 15.1589 31.3185 14.986 31.541 14.8786C31.7635 14.7713 32.0017 14.7339 32.2555 14.7665C32.4414 14.7904 32.602 14.8513 32.7371 14.9494C32.8724 15.0456 32.9775 15.1624 33.0524 15.3L33.2486 13.7716L33.7687 13.8383L33.222 18.0983L32.7367 18.036ZM31.281 16.2837C31.2302 16.6789 31.2756 16.985 31.4171 17.2021C31.5586 17.4191 31.7427 17.5422 31.9694 17.5713C32.1979 17.6006 32.4036 17.5325 32.5863 17.3669C32.7712 17.1996 32.8883 16.9242 32.9375 16.5406C32.9917 16.1183 32.9501 15.7979 32.8128 15.5794C32.6754 15.3609 32.4876 15.2364 32.2493 15.2058C32.0168 15.176 31.8099 15.2459 31.6287 15.4156C31.4493 15.5856 31.3334 15.875 31.281 16.2837Z" fill="white"/>
</svg>
