<svg width="121" height="56" viewBox="0 0 121 56" fill="none" xmlns="http://www.w3.org/2000/svg">
<path d="M4.785 44.785C3.86833 44.785 3.00667 44.5283 2.2 44.015C1.39333 43.5017 0.99 42.8417 0.99 42.035C0.99 41.6317 1.08167 41.1367 1.265 40.55C1.44833 40 1.61333 39.4867 1.76 39.01C2.93333 35.4167 4.03333 32.0617 5.06 28.945C6.08667 25.8283 7.11333 22.8033 8.14 19.87C9.16667 16.9367 10.2483 14.0033 11.385 11.07C12.5583 8.13667 13.86 5.075 15.29 1.885C13.8967 2.14166 12.65 2.52666 11.55 3.04C10.4867 3.51666 9.625 3.95667 8.965 4.36C8.305 4.72667 7.865 4.91 7.645 4.91C7.49833 4.91 7.27833 4.83667 6.985 4.69C6.72833 4.50667 6.49 4.305 6.27 4.085C6.05 3.82833 5.94 3.60833 5.94 3.425C6.89333 3.02166 8.01167 2.58166 9.295 2.105C10.615 1.62833 12.0267 1.225 13.53 0.894999C15.0333 0.564998 16.555 0.399998 18.095 0.399998C19.7083 0.399998 21.34 0.619999 22.99 1.06C24.6767 1.5 26.2167 2.17833 27.61 3.095C29.0033 3.975 30.1217 5.075 30.965 6.395C31.8083 7.715 32.23 9.255 32.23 11.015C32.23 12.9217 31.8083 14.5717 30.965 15.965C30.1217 17.3217 29.0033 18.4767 27.61 19.43C26.2167 20.3467 24.7133 21.0983 23.1 21.685C21.4867 22.235 19.8733 22.675 18.26 23.005C16.6833 23.2983 15.2717 23.5 14.025 23.61C12.7783 23.6833 11.8617 23.72 11.275 23.72H10.725C9.625 27.4967 8.56167 31.2183 7.535 34.885C6.545 38.5517 5.62833 41.8517 4.785 44.785ZM10.945 22.84C12.9617 22.73 14.9967 22.4 17.05 21.85C19.14 21.3 21.0467 20.5117 22.77 19.485C24.4933 18.4217 25.8867 17.12 26.95 15.58C28.0133 14.0033 28.545 12.17 28.545 10.08C28.545 8.1 28.0683 6.48666 27.115 5.24C26.1983 3.99333 24.97 3.07667 23.43 2.49C21.9267 1.86666 20.3133 1.555 18.59 1.555C17.2333 4.23166 15.9133 7.44 14.63 11.18C13.3467 14.92 12.1183 18.8067 10.945 22.84ZM27.4545 42.585C26.3178 42.585 25.3645 42.2 24.5945 41.43C23.7878 40.6967 23.3845 39.56 23.3845 38.02C23.3845 36.7 23.6778 35.2883 24.2645 33.785C24.8511 32.245 25.6578 30.7417 26.6845 29.275C27.7111 27.7717 28.8661 26.415 30.1495 25.205C31.4695 23.9583 32.8445 22.9683 34.2745 22.235C35.7411 21.5017 37.1895 21.135 38.6195 21.135C40.0495 21.135 41.2411 21.52 42.1945 22.29C43.1478 23.0233 43.6245 24.0133 43.6245 25.26C43.6245 26.1767 43.3678 26.8 42.8545 27.13C42.3778 27.46 41.7361 27.625 40.9295 27.625C41.0028 27.3317 41.0578 27.02 41.0945 26.69C41.1678 26.3233 41.2045 25.9933 41.2045 25.7C41.2045 24.8567 41.0028 24.1417 40.5995 23.555C40.1961 22.9317 39.4995 22.62 38.5095 22.62C37.4828 22.62 36.4378 22.9867 35.3745 23.72C34.3111 24.4167 33.2845 25.37 32.2945 26.58C31.3045 27.7533 30.4245 29.0367 29.6545 30.43C28.8845 31.8233 28.2795 33.1983 27.8395 34.555C27.3995 35.9117 27.1795 37.1217 27.1795 38.185C27.1795 39.615 27.6745 40.33 28.6645 40.33C29.5078 40.33 30.4245 39.945 31.4145 39.175C32.4045 38.3683 33.4128 37.36 34.4395 36.15C35.5028 34.9033 36.5111 33.62 37.4645 32.3C38.4178 30.98 39.2611 29.77 39.9945 28.67C40.1411 28.45 40.2328 28.34 40.2695 28.34C40.4895 28.3767 40.7645 28.45 41.0945 28.56C41.4611 28.67 41.7728 28.8167 42.0295 29C42.2861 29.1833 42.4145 29.4217 42.4145 29.715C42.4145 30.045 42.2495 30.5033 41.9195 31.09C41.5895 31.64 41.2228 32.2817 40.8195 33.015C40.4161 33.7483 40.0495 34.5 39.7195 35.27C39.3895 36.0033 39.2245 36.7 39.2245 37.36C39.2245 37.91 39.3711 38.46 39.6645 39.01C39.9578 39.5233 40.4345 39.78 41.0945 39.78C42.0845 39.78 43.3861 39.065 44.9995 37.635C46.6128 36.1683 48.2445 33.9867 49.8945 31.09L50.4445 31.64C49.6745 33.62 48.6845 35.3617 47.4745 36.865C46.2645 38.3683 44.9628 39.5417 43.5695 40.385C42.2128 41.2283 40.8745 41.65 39.5545 41.65C38.1978 41.65 37.1895 41.2467 36.5295 40.44C35.9061 39.6333 35.5945 38.7533 35.5945 37.8C35.5945 37.58 35.6128 37.3417 35.6495 37.085C35.6861 36.7917 35.7228 36.4983 35.7595 36.205C34.1828 38.3317 32.7345 39.9267 31.4145 40.99C30.1311 42.0533 28.8111 42.585 27.4545 42.585ZM45.3045 55.4C45.0112 55.4 44.7362 55.235 44.4795 54.905C44.1862 54.6117 43.9662 54.2817 43.8195 53.915C43.6729 53.585 43.5995 53.3833 43.5995 53.31C44.1129 51.5133 44.6262 49.9 45.1395 48.47C45.6162 47.0767 46.1112 45.6283 46.6245 44.125C47.1012 42.6583 47.5779 40.935 48.0545 38.955C48.5312 36.9383 49.0262 34.445 49.5395 31.475C50.0529 28.505 50.5662 24.82 51.0795 20.42C51.1162 20.09 51.1895 19.8517 51.2995 19.705C51.4095 19.5583 51.6845 19.485 52.1245 19.485C53.0779 19.485 53.7562 19.76 54.1595 20.31C54.5629 20.8233 54.7645 21.3917 54.7645 22.015C54.7645 22.5283 54.6545 23.445 54.4345 24.765C54.2145 26.085 53.9029 27.6433 53.4995 29.44C54.1229 28.23 54.8929 27.0017 55.8095 25.755C56.7629 24.5083 57.8445 23.4633 59.0545 22.62C60.2645 21.7767 61.5845 21.355 63.0145 21.355C64.6279 21.355 65.9479 21.9417 66.9745 23.115C68.0379 24.2517 68.5695 25.755 68.5695 27.625C68.5695 29.055 68.2395 30.5767 67.5795 32.19C66.9562 33.7667 66.0579 35.27 64.8845 36.7C63.7479 38.0933 62.3912 39.23 60.8145 40.11C59.2379 40.99 57.4962 41.43 55.5895 41.43C54.6362 41.43 53.8662 41.32 53.2795 41.1C52.6929 40.88 52.3995 40.66 52.3995 40.44C52.3995 40.2933 52.5279 40.2017 52.7845 40.165C53.0779 40.165 53.4079 40.165 53.7745 40.165C55.2412 40.165 56.6345 39.8167 57.9545 39.12C59.3112 38.3867 60.5212 37.4333 61.5845 36.26C62.6479 35.0867 63.4729 33.785 64.0595 32.355C64.6829 30.925 64.9945 29.5133 64.9945 28.12C64.9945 26.9467 64.7379 25.9567 64.2245 25.15C63.7479 24.3067 62.9595 23.885 61.8595 23.885C60.9062 23.885 59.9529 24.1967 58.9995 24.82C58.0829 25.4067 57.2029 26.1767 56.3595 27.13C55.5529 28.0467 54.8195 29.0183 54.1595 30.045C53.5362 31.035 53.0595 31.9333 52.7295 32.74C52.0695 35.49 51.4095 38.13 50.7495 40.66C50.0895 43.2267 49.4479 45.5367 48.8245 47.59C48.2379 49.68 47.7062 51.385 47.2295 52.705C46.7162 54.025 46.2945 54.8317 45.9645 55.125C45.7812 55.3083 45.5612 55.4 45.3045 55.4ZM72.8939 42.585C71.7572 42.585 70.8039 42.2 70.0339 41.43C69.2272 40.6967 68.8239 39.56 68.8239 38.02C68.8239 36.7 69.1172 35.2883 69.7039 33.785C70.2906 32.245 71.0972 30.7417 72.1239 29.275C73.1506 27.7717 74.3056 26.415 75.5889 25.205C76.9089 23.9583 78.2839 22.9683 79.7139 22.235C81.1806 21.5017 82.6289 21.135 84.0589 21.135C85.4889 21.135 86.6806 21.52 87.6339 22.29C88.5872 23.0233 89.0639 24.0133 89.0639 25.26C89.0639 26.1767 88.8072 26.8 88.2939 27.13C87.8172 27.46 87.1756 27.625 86.3689 27.625C86.4422 27.3317 86.4972 27.02 86.5339 26.69C86.6072 26.3233 86.6439 25.9933 86.6439 25.7C86.6439 24.8567 86.4422 24.1417 86.0389 23.555C85.6356 22.9317 84.9389 22.62 83.9489 22.62C82.9222 22.62 81.8772 22.9867 80.8139 23.72C79.7506 24.4167 78.7239 25.37 77.7339 26.58C76.7439 27.7533 75.8639 29.0367 75.0939 30.43C74.3239 31.8233 73.7189 33.1983 73.2789 34.555C72.8389 35.9117 72.6189 37.1217 72.6189 38.185C72.6189 39.615 73.1139 40.33 74.1039 40.33C74.9472 40.33 75.8639 39.945 76.8539 39.175C77.8439 38.3683 78.8522 37.36 79.8789 36.15C80.9422 34.9033 81.9506 33.62 82.9039 32.3C83.8572 30.98 84.7006 29.77 85.4339 28.67C85.5806 28.45 85.6722 28.34 85.7089 28.34C85.9289 28.3767 86.2039 28.45 86.5339 28.56C86.9006 28.67 87.2122 28.8167 87.4689 29C87.7256 29.1833 87.8539 29.4217 87.8539 29.715C87.8539 30.045 87.6889 30.5033 87.3589 31.09C87.0289 31.64 86.6622 32.2817 86.2589 33.015C85.8556 33.7483 85.4889 34.5 85.1589 35.27C84.8289 36.0033 84.6639 36.7 84.6639 37.36C84.6639 37.91 84.8106 38.46 85.1039 39.01C85.3972 39.5233 85.8739 39.78 86.5339 39.78C87.5239 39.78 88.8256 39.065 90.4389 37.635C92.0522 36.1683 93.6839 33.9867 95.3339 31.09L95.8839 31.64C95.1139 33.62 94.1239 35.3617 92.9139 36.865C91.7039 38.3683 90.4022 39.5417 89.0089 40.385C87.6522 41.2283 86.3139 41.65 84.9939 41.65C83.6372 41.65 82.6289 41.2467 81.9689 40.44C81.3456 39.6333 81.0339 38.7533 81.0339 37.8C81.0339 37.58 81.0522 37.3417 81.0889 37.085C81.1256 36.7917 81.1622 36.4983 81.1989 36.205C79.6222 38.3317 78.1739 39.9267 76.8539 40.99C75.5706 42.0533 74.2506 42.585 72.8939 42.585ZM96.574 55.4C95.6573 55.4 94.8507 55.1433 94.154 54.63C93.4573 54.1533 93.109 53.4383 93.109 52.485C93.109 51.3117 93.4023 50.2667 93.989 49.35C94.5757 48.4333 95.364 47.59 96.354 46.82C97.344 46.05 98.4807 45.3167 99.764 44.62C101.047 43.9233 102.386 43.2267 103.779 42.53C104.292 41.1733 104.806 39.67 105.319 38.02C105.869 36.3333 106.382 34.4817 106.859 32.465C105.686 34.3717 104.421 36.0217 103.064 37.415C101.744 38.7717 100.332 39.45 98.829 39.45C98.1323 39.45 97.4357 39.3033 96.739 39.01C96.079 38.68 95.529 38.185 95.089 37.525C94.649 36.865 94.429 36.0217 94.429 34.995C94.429 33.9683 94.594 32.7767 94.924 31.42C95.2907 30.0633 95.7307 28.7433 96.244 27.46C96.7573 26.1767 97.289 25.1133 97.839 24.27C98.389 23.4267 98.8657 23.005 99.269 23.005C99.4157 23.005 99.6723 23.06 100.039 23.17C100.442 23.28 100.809 23.445 101.139 23.665C101.506 23.8483 101.689 24.05 101.689 24.27C101.359 24.7467 100.992 25.425 100.589 26.305C100.186 27.185 99.7823 28.175 99.379 29.275C99.0123 30.3383 98.7007 31.3833 98.444 32.41C98.1873 33.4367 98.059 34.3167 98.059 35.05C98.059 35.71 98.2057 36.2417 98.499 36.645C98.7923 37.0483 99.3057 37.25 100.039 37.25C100.736 37.25 101.506 36.92 102.349 36.26C103.229 35.5633 104.091 34.6833 104.934 33.62C105.814 32.5567 106.621 31.42 107.354 30.21C107.464 29.8067 107.556 29.4033 107.629 29C107.739 28.56 107.831 28.12 107.904 27.68C108.014 27.1667 108.271 26.58 108.674 25.92C109.114 25.2233 109.792 24.875 110.709 24.875C110.892 24.875 111.076 24.8933 111.259 24.93C111.442 24.93 111.644 24.9667 111.864 25.04C111.864 25.6267 111.681 26.7267 111.314 28.34C110.984 29.9167 110.489 31.7683 109.829 33.895C109.206 36.0217 108.454 38.2033 107.574 40.44C109.297 39.78 110.984 38.6983 112.634 37.195C114.284 35.655 115.622 33.62 116.649 31.09L117.364 31.64C116.814 33.4 115.971 34.94 114.834 36.26C113.734 37.5433 112.487 38.6617 111.094 39.615C109.701 40.5317 108.326 41.3017 106.969 41.925C106.016 44.2717 104.971 46.4717 103.834 48.525C102.734 50.5783 101.561 52.2283 100.314 53.475C99.104 54.7583 97.8573 55.4 96.574 55.4ZM96.299 53.64C96.849 53.64 97.7657 52.9067 99.049 51.44C100.369 50.01 101.762 47.48 103.229 43.85C101.726 44.6567 100.332 45.445 99.049 46.215C97.7657 47.0217 96.739 47.8833 95.969 48.8C95.199 49.7167 94.814 50.78 94.814 51.99C94.814 52.2833 94.924 52.6317 95.144 53.035C95.364 53.4383 95.749 53.64 96.299 53.64ZM117.786 40.55C117.309 40.55 116.888 40.4217 116.521 40.165C116.191 39.945 116.026 39.5783 116.026 39.065C116.026 38.6617 116.191 38.295 116.521 37.965C116.851 37.5983 117.254 37.3233 117.731 37.14C118.244 36.92 118.739 36.81 119.216 36.81C119.656 36.81 120.004 36.9017 120.261 37.085C120.518 37.2683 120.646 37.6167 120.646 38.13C120.646 38.4967 120.499 38.8633 120.206 39.23C119.949 39.5967 119.601 39.9083 119.161 40.165C118.721 40.4217 118.263 40.55 117.786 40.55Z" fill="#E2E4E4"/>
</svg>
