<svg width="73" height="33" viewBox="0 0 73 33" fill="none" xmlns="http://www.w3.org/2000/svg">
<path d="M2.871 26.8715C2.321 26.8715 1.804 26.7175 1.32 26.4095C0.836 26.1015 0.594 25.7055 0.594 25.2215C0.594 24.9795 0.649 24.6825 0.759 24.3305C0.869 24.0005 0.968 23.6925 1.056 23.4065C1.76 21.2505 2.42 19.2375 3.036 17.3675C3.652 15.4975 4.268 13.6825 4.884 11.9225C5.5 10.1625 6.149 8.40249 6.831 6.64249C7.535 4.88249 8.316 3.04549 9.174 1.13149C8.338 1.28549 7.59 1.51649 6.93 1.82449C6.292 2.11049 5.775 2.37449 5.379 2.61649C4.983 2.83649 4.719 2.94649 4.587 2.94649C4.499 2.94649 4.367 2.90249 4.191 2.81449C4.037 2.70449 3.894 2.58349 3.762 2.45149C3.63 2.29749 3.564 2.16549 3.564 2.05549C4.136 1.81349 4.807 1.54949 5.577 1.26349C6.369 0.977488 7.216 0.735488 8.118 0.537487C9.02 0.339487 9.933 0.240487 10.857 0.240487C11.825 0.240487 12.804 0.372488 13.794 0.636488C14.806 0.900487 15.73 1.30749 16.566 1.85749C17.402 2.38549 18.073 3.04549 18.579 3.83749C19.085 4.62949 19.338 5.55349 19.338 6.60949C19.338 7.75349 19.085 8.74349 18.579 9.57949C18.073 10.3935 17.402 11.0865 16.566 11.6585C15.73 12.2085 14.828 12.6595 13.86 13.0115C12.892 13.3415 11.924 13.6055 10.956 13.8035C10.01 13.9795 9.163 14.1005 8.415 14.1665C7.667 14.2105 7.117 14.2325 6.765 14.2325H6.435C5.775 16.4985 5.137 18.7315 4.521 20.9315C3.927 23.1315 3.377 25.1115 2.871 26.8715ZM6.567 13.7045C7.777 13.6385 8.998 13.4405 10.23 13.1105C11.484 12.7805 12.628 12.3075 13.662 11.6915C14.696 11.0535 15.532 10.2725 16.17 9.34849C16.808 8.40249 17.127 7.30249 17.127 6.04849C17.127 4.86049 16.841 3.89249 16.269 3.14449C15.719 2.39649 14.982 1.84649 14.058 1.49449C13.156 1.12049 12.188 0.933486 11.154 0.933486C10.34 2.53949 9.548 4.46449 8.778 6.70849C8.008 8.95249 7.271 11.2845 6.567 13.7045ZM16.4727 25.5515C15.7907 25.5515 15.2187 25.3205 14.7567 24.8585C14.2727 24.4185 14.0307 23.7365 14.0307 22.8125C14.0307 22.0205 14.2067 21.1735 14.5587 20.2715C14.9107 19.3475 15.3947 18.4455 16.0107 17.5655C16.6267 16.6635 17.3197 15.8495 18.0897 15.1235C18.8817 14.3755 19.7067 13.7815 20.5647 13.3415C21.4447 12.9015 22.3137 12.6815 23.1717 12.6815C24.0297 12.6815 24.7447 12.9125 25.3167 13.3745C25.8887 13.8145 26.1747 14.4085 26.1747 15.1565C26.1747 15.7065 26.0207 16.0805 25.7127 16.2785C25.4267 16.4765 25.0417 16.5755 24.5577 16.5755C24.6017 16.3995 24.6347 16.2125 24.6567 16.0145C24.7007 15.7945 24.7227 15.5965 24.7227 15.4205C24.7227 14.9145 24.6017 14.4855 24.3597 14.1335C24.1177 13.7595 23.6997 13.5725 23.1057 13.5725C22.4897 13.5725 21.8627 13.7925 21.2247 14.2325C20.5867 14.6505 19.9707 15.2225 19.3767 15.9485C18.7827 16.6525 18.2547 17.4225 17.7927 18.2585C17.3307 19.0945 16.9677 19.9195 16.7037 20.7335C16.4397 21.5475 16.3077 22.2735 16.3077 22.9115C16.3077 23.7695 16.6047 24.1985 17.1987 24.1985C17.7047 24.1985 18.2547 23.9675 18.8487 23.5055C19.4427 23.0215 20.0477 22.4165 20.6637 21.6905C21.3017 20.9425 21.9067 20.1725 22.4787 19.3805C23.0507 18.5885 23.5567 17.8625 23.9967 17.2025C24.0847 17.0705 24.1397 17.0045 24.1617 17.0045C24.2937 17.0265 24.4587 17.0705 24.6567 17.1365C24.8767 17.2025 25.0637 17.2905 25.2177 17.4005C25.3717 17.5105 25.4487 17.6535 25.4487 17.8295C25.4487 18.0275 25.3497 18.3025 25.1517 18.6545C24.9537 18.9845 24.7337 19.3695 24.4917 19.8095C24.2497 20.2495 24.0297 20.7005 23.8317 21.1625C23.6337 21.6025 23.5347 22.0205 23.5347 22.4165C23.5347 22.7465 23.6227 23.0765 23.7987 23.4065C23.9747 23.7145 24.2607 23.8685 24.6567 23.8685C25.2507 23.8685 26.0317 23.4395 26.9997 22.5815C27.9677 21.7015 28.9467 20.3925 29.9367 18.6545L30.2667 18.9845C29.8047 20.1725 29.2107 21.2175 28.4847 22.1195C27.7587 23.0215 26.9777 23.7255 26.1417 24.2315C25.3277 24.7375 24.5247 24.9905 23.7327 24.9905C22.9187 24.9905 22.3137 24.7485 21.9177 24.2645C21.5437 23.7805 21.3567 23.2525 21.3567 22.6805C21.3567 22.5485 21.3677 22.4055 21.3897 22.2515C21.4117 22.0755 21.4337 21.8995 21.4557 21.7235C20.5097 22.9995 19.6407 23.9565 18.8487 24.5945C18.0787 25.2325 17.2867 25.5515 16.4727 25.5515ZM27.1827 33.2405C27.0067 33.2405 26.8417 33.1415 26.6877 32.9435C26.5117 32.7675 26.3797 32.5695 26.2917 32.3495C26.2037 32.1515 26.1597 32.0305 26.1597 31.9865C26.4677 30.9085 26.7757 29.9405 27.0837 29.0825C27.3697 28.2465 27.6667 27.3775 27.9747 26.4755C28.2607 25.5955 28.5467 24.5615 28.8327 23.3735C29.1187 22.1635 29.4157 20.6675 29.7237 18.8855C30.0317 17.1035 30.3397 14.8925 30.6477 12.2525C30.6697 12.0545 30.7137 11.9115 30.7797 11.8235C30.8457 11.7355 31.0107 11.6915 31.2747 11.6915C31.8467 11.6915 32.2537 11.8565 32.4957 12.1865C32.7377 12.4945 32.8587 12.8355 32.8587 13.2095C32.8587 13.5175 32.7927 14.0675 32.6607 14.8595C32.5287 15.6515 32.3417 16.5865 32.0997 17.6645C32.4737 16.9385 32.9357 16.2015 33.4857 15.4535C34.0577 14.7055 34.7067 14.0785 35.4327 13.5725C36.1587 13.0665 36.9507 12.8135 37.8087 12.8135C38.7767 12.8135 39.5687 13.1655 40.1847 13.8695C40.8227 14.5515 41.1417 15.4535 41.1417 16.5755C41.1417 17.4335 40.9437 18.3465 40.5477 19.3145C40.1737 20.2605 39.6347 21.1625 38.9307 22.0205C38.2487 22.8565 37.4347 23.5385 36.4887 24.0665C35.5427 24.5945 34.4977 24.8585 33.3537 24.8585C32.7817 24.8585 32.3197 24.7925 31.9677 24.6605C31.6157 24.5285 31.4397 24.3965 31.4397 24.2645C31.4397 24.1765 31.5167 24.1215 31.6707 24.0995C31.8467 24.0995 32.0447 24.0995 32.2647 24.0995C33.1447 24.0995 33.9807 23.8905 34.7727 23.4725C35.5867 23.0325 36.3127 22.4605 36.9507 21.7565C37.5887 21.0525 38.0837 20.2715 38.4357 19.4135C38.8097 18.5555 38.9967 17.7085 38.9967 16.8725C38.9967 16.1685 38.8427 15.5745 38.5347 15.0905C38.2487 14.5845 37.7757 14.3315 37.1157 14.3315C36.5437 14.3315 35.9717 14.5185 35.3997 14.8925C34.8497 15.2445 34.3217 15.7065 33.8157 16.2785C33.3317 16.8285 32.8917 17.4115 32.4957 18.0275C32.1217 18.6215 31.8357 19.1605 31.6377 19.6445C31.2417 21.2945 30.8457 22.8785 30.4497 24.3965C30.0537 25.9365 29.6687 27.3225 29.2947 28.5545C28.9427 29.8085 28.6237 30.8315 28.3377 31.6235C28.0297 32.4155 27.7767 32.8995 27.5787 33.0755C27.4687 33.1855 27.3367 33.2405 27.1827 33.2405ZM43.7363 25.5515C43.0543 25.5515 42.4823 25.3205 42.0203 24.8585C41.5363 24.4185 41.2943 23.7365 41.2943 22.8125C41.2943 22.0205 41.4703 21.1735 41.8223 20.2715C42.1743 19.3475 42.6583 18.4455 43.2743 17.5655C43.8903 16.6635 44.5833 15.8495 45.3533 15.1235C46.1453 14.3755 46.9703 13.7815 47.8283 13.3415C48.7083 12.9015 49.5773 12.6815 50.4353 12.6815C51.2933 12.6815 52.0083 12.9125 52.5803 13.3745C53.1523 13.8145 53.4383 14.4085 53.4383 15.1565C53.4383 15.7065 53.2843 16.0805 52.9763 16.2785C52.6903 16.4765 52.3053 16.5755 51.8213 16.5755C51.8653 16.3995 51.8983 16.2125 51.9203 16.0145C51.9643 15.7945 51.9863 15.5965 51.9863 15.4205C51.9863 14.9145 51.8653 14.4855 51.6233 14.1335C51.3813 13.7595 50.9633 13.5725 50.3693 13.5725C49.7533 13.5725 49.1263 13.7925 48.4883 14.2325C47.8503 14.6505 47.2343 15.2225 46.6403 15.9485C46.0463 16.6525 45.5183 17.4225 45.0563 18.2585C44.5943 19.0945 44.2313 19.9195 43.9673 20.7335C43.7033 21.5475 43.5713 22.2735 43.5713 22.9115C43.5713 23.7695 43.8683 24.1985 44.4623 24.1985C44.9683 24.1985 45.5183 23.9675 46.1123 23.5055C46.7063 23.0215 47.3113 22.4165 47.9273 21.6905C48.5653 20.9425 49.1703 20.1725 49.7423 19.3805C50.3143 18.5885 50.8203 17.8625 51.2603 17.2025C51.3483 17.0705 51.4033 17.0045 51.4253 17.0045C51.5573 17.0265 51.7223 17.0705 51.9203 17.1365C52.1403 17.2025 52.3273 17.2905 52.4813 17.4005C52.6353 17.5105 52.7123 17.6535 52.7123 17.8295C52.7123 18.0275 52.6133 18.3025 52.4153 18.6545C52.2173 18.9845 51.9973 19.3695 51.7553 19.8095C51.5133 20.2495 51.2933 20.7005 51.0953 21.1625C50.8973 21.6025 50.7983 22.0205 50.7983 22.4165C50.7983 22.7465 50.8863 23.0765 51.0623 23.4065C51.2383 23.7145 51.5243 23.8685 51.9203 23.8685C52.5143 23.8685 53.2953 23.4395 54.2633 22.5815C55.2313 21.7015 56.2103 20.3925 57.2003 18.6545L57.5303 18.9845C57.0683 20.1725 56.4743 21.2175 55.7483 22.1195C55.0223 23.0215 54.2413 23.7255 53.4053 24.2315C52.5913 24.7375 51.7883 24.9905 50.9963 24.9905C50.1823 24.9905 49.5773 24.7485 49.1813 24.2645C48.8073 23.7805 48.6203 23.2525 48.6203 22.6805C48.6203 22.5485 48.6313 22.4055 48.6533 22.2515C48.6753 22.0755 48.6973 21.8995 48.7193 21.7235C47.7733 22.9995 46.9043 23.9565 46.1123 24.5945C45.3423 25.2325 44.5503 25.5515 43.7363 25.5515ZM57.9444 33.2405C57.3944 33.2405 56.9104 33.0865 56.4924 32.7785C56.0744 32.4925 55.8654 32.0635 55.8654 31.4915C55.8654 30.7875 56.0414 30.1605 56.3934 29.6105C56.7454 29.0605 57.2184 28.5545 57.8124 28.0925C58.4064 27.6305 59.0884 27.1905 59.8584 26.7725C60.6284 26.3545 61.4314 25.9365 62.2674 25.5185C62.5754 24.7045 62.8834 23.8025 63.1914 22.8125C63.5214 21.8005 63.8294 20.6895 64.1154 19.4795C63.4114 20.6235 62.6524 21.6135 61.8384 22.4495C61.0464 23.2635 60.1994 23.6705 59.2974 23.6705C58.8794 23.6705 58.4614 23.5825 58.0434 23.4065C57.6474 23.2085 57.3174 22.9115 57.0534 22.5155C56.7894 22.1195 56.6574 21.6135 56.6574 20.9975C56.6574 20.3815 56.7564 19.6665 56.9544 18.8525C57.1744 18.0385 57.4384 17.2465 57.7464 16.4765C58.0544 15.7065 58.3734 15.0685 58.7034 14.5625C59.0334 14.0565 59.3194 13.8035 59.5614 13.8035C59.6494 13.8035 59.8034 13.8365 60.0234 13.9025C60.2654 13.9685 60.4854 14.0675 60.6834 14.1995C60.9034 14.3095 61.0134 14.4305 61.0134 14.5625C60.8154 14.8485 60.5954 15.2555 60.3534 15.7835C60.1114 16.3115 59.8694 16.9055 59.6274 17.5655C59.4074 18.2035 59.2204 18.8305 59.0664 19.4465C58.9124 20.0625 58.8354 20.5905 58.8354 21.0305C58.8354 21.4265 58.9234 21.7455 59.0994 21.9875C59.2754 22.2295 59.5834 22.3505 60.0234 22.3505C60.4414 22.3505 60.9034 22.1525 61.4094 21.7565C61.9374 21.3385 62.4544 20.8105 62.9604 20.1725C63.4884 19.5345 63.9724 18.8525 64.4124 18.1265C64.4784 17.8845 64.5334 17.6425 64.5774 17.4005C64.6434 17.1365 64.6984 16.8725 64.7424 16.6085C64.8084 16.3005 64.9624 15.9485 65.2044 15.5525C65.4684 15.1345 65.8754 14.9255 66.4254 14.9255C66.5354 14.9255 66.6454 14.9365 66.7554 14.9585C66.8654 14.9585 66.9864 14.9805 67.1184 15.0245C67.1184 15.3765 67.0084 16.0365 66.7884 17.0045C66.5904 17.9505 66.2934 19.0615 65.8974 20.3375C65.5234 21.6135 65.0724 22.9225 64.5444 24.2645C65.5784 23.8685 66.5904 23.2195 67.5804 22.3175C68.5704 21.3935 69.3734 20.1725 69.9894 18.6545L70.4184 18.9845C70.0884 20.0405 69.5824 20.9645 68.9004 21.7565C68.2404 22.5265 67.4924 23.1975 66.6564 23.7695C65.8204 24.3195 64.9954 24.7815 64.1814 25.1555C63.6094 26.5635 62.9824 27.8835 62.3004 29.1155C61.6404 30.3475 60.9364 31.3375 60.1884 32.0855C59.4624 32.8555 58.7144 33.2405 57.9444 33.2405ZM57.7794 32.1845C58.1094 32.1845 58.6594 31.7445 59.4294 30.8645C60.2214 30.0065 61.0574 28.4885 61.9374 26.3105C61.0354 26.7945 60.1994 27.2675 59.4294 27.7295C58.6594 28.2135 58.0434 28.7305 57.5814 29.2805C57.1194 29.8305 56.8884 30.4685 56.8884 31.1945C56.8884 31.3705 56.9544 31.5795 57.0864 31.8215C57.2184 32.0635 57.4494 32.1845 57.7794 32.1845ZM70.6716 24.3305C70.3856 24.3305 70.1326 24.2535 69.9126 24.0995C69.7146 23.9675 69.6156 23.7475 69.6156 23.4395C69.6156 23.1975 69.7146 22.9775 69.9126 22.7795C70.1106 22.5595 70.3526 22.3945 70.6386 22.2845C70.9466 22.1525 71.2436 22.0865 71.5296 22.0865C71.7936 22.0865 72.0026 22.1415 72.1566 22.2515C72.3106 22.3615 72.3876 22.5705 72.3876 22.8785C72.3876 23.0985 72.2996 23.3185 72.1236 23.5385C71.9696 23.7585 71.7606 23.9455 71.4966 24.0995C71.2326 24.2535 70.9576 24.3305 70.6716 24.3305Z" fill="#D7B686"/>
</svg>
