<svg width="17" height="17" viewBox="0 0 17 17" fill="none" xmlns="http://www.w3.org/2000/svg">
<path fill-rule="evenodd" clip-rule="evenodd" d="M9.71438 7.28569V2.8333C9.71438 2.16267 9.17072 1.61902 8.50009 1.61902C7.82946 1.61902 7.28581 2.16267 7.28581 2.8333V7.28569H2.83343C2.16279 7.28569 1.61914 7.82934 1.61914 8.49997C1.61914 9.1706 2.16279 9.71426 2.83343 9.71426H7.28581V14.1666C7.28581 14.8373 7.82946 15.3809 8.50009 15.3809C9.17072 15.3809 9.71438 14.8373 9.71438 14.1666V9.71426H14.1668C14.8374 9.71426 15.381 9.1706 15.381 8.49997C15.381 7.82934 14.8374 7.28569 14.1668 7.28569H9.71438Z" fill="#6D778B"/>
<mask id="mask0_1293_1487" style="mask-type:luminance" maskUnits="userSpaceOnUse" x="1" y="1" width="15" height="15">
<path fill-rule="evenodd" clip-rule="evenodd" d="M9.71438 7.28569V2.8333C9.71438 2.16267 9.17072 1.61902 8.50009 1.61902C7.82946 1.61902 7.28581 2.16267 7.28581 2.8333V7.28569H2.83343C2.16279 7.28569 1.61914 7.82934 1.61914 8.49997C1.61914 9.1706 2.16279 9.71426 2.83343 9.71426H7.28581V14.1666C7.28581 14.8373 7.82946 15.3809 8.50009 15.3809C9.17072 15.3809 9.71438 14.8373 9.71438 14.1666V9.71426H14.1668C14.8374 9.71426 15.381 9.1706 15.381 8.49997C15.381 7.82934 14.8374 7.28569 14.1668 7.28569H9.71438Z" fill="white"/>
</mask>
<g mask="url(#mask0_1293_1487)">
</g>
</svg>
