<svg width="25" height="25" viewBox="0 0 25 25" fill="none" xmlns="http://www.w3.org/2000/svg">
<path fill-rule="evenodd" clip-rule="evenodd" d="M16.5406 3.86143C17.1266 3.27558 17.9213 2.94647 18.75 2.94647C19.5786 2.94647 20.3733 3.27558 20.9593 3.86143L21.1385 4.0406C21.7244 4.62662 22.0535 5.42133 22.0535 6.24997C22.0535 7.07861 21.7244 7.87332 21.1385 8.45935L19.3291 10.2708L9.06976 20.5291C8.93642 20.6625 8.76936 20.7572 8.58642 20.8031L4.41976 21.8448C4.24519 21.8885 4.06227 21.8862 3.88883 21.8382C3.71539 21.7902 3.55735 21.6981 3.4301 21.5709C3.30285 21.4436 3.21073 21.2856 3.16274 21.1121C3.11474 20.9387 3.11249 20.7558 3.15621 20.5812L4.19788 16.4146C4.24376 16.2316 4.33845 16.0646 4.47184 15.9312L14.7906 5.61247L16.5406 3.86247V3.86143ZM19.4864 5.33435C19.2911 5.13906 19.0262 5.02936 18.75 5.02936C18.4738 5.02936 18.2088 5.13906 18.0135 5.33435L16.9864 6.36143L18.6062 8.0458L19.6656 6.98643C19.8609 6.79109 19.9706 6.52618 19.9706 6.24997C19.9706 5.97376 19.8609 5.70885 19.6656 5.51351L19.4864 5.33435V5.33435ZM17.1323 9.51872L15.5125 7.83539L6.14892 17.2L5.59788 19.4021L7.80101 18.851L17.1333 9.51872H17.1323Z" fill="#201F25"/>
</svg>
