<svg width="24" height="24" viewBox="0 0 24 24" fill="none" xmlns="http://www.w3.org/2000/svg">
<path fill-rule="evenodd" clip-rule="evenodd" d="M0.667969 3.32877C0.667969 3.69697 0.966442 3.99545 1.33463 3.99545H3.19181C3.53325 3.99545 3.8195 4.25342 3.85489 4.59302L5.13522 16.8806C5.24137 17.8994 6.10012 18.6733 7.12443 18.6733H19.9607C20.3288 18.6733 20.6273 18.3749 20.6273 18.0067C20.6273 17.6385 20.3288 17.34 19.9607 17.34H7.12443C6.78299 17.34 6.49675 17.082 6.46136 16.7424L6.37737 15.9364L19.2515 14.73C19.6592 14.6918 20.0024 14.4089 20.1177 14.0161L22.2913 6.61516C22.4794 5.97476 21.9993 5.33337 21.3318 5.33337H5.27257L5.18102 4.45483C5.07487 3.43603 4.21613 2.66211 3.19181 2.66211H1.33463C0.966442 2.66211 0.667969 2.96059 0.667969 3.32877Z" fill="white"/>
<path fill-rule="evenodd" clip-rule="evenodd" d="M8.00129 22.6667C8.73766 22.6667 9.33461 22.0697 9.33461 21.3333C9.33461 20.597 8.73766 20 8.00129 20C7.26492 20 6.66797 20.597 6.66797 21.3333C6.66797 22.0697 7.26492 22.6667 8.00129 22.6667Z" fill="white"/>
<path fill-rule="evenodd" clip-rule="evenodd" d="M17.3333 22.6667C18.0697 22.6667 18.6666 22.0697 18.6666 21.3333C18.6666 20.597 18.0697 20 17.3333 20C16.5969 20 16 20.597 16 21.3333C16 22.0697 16.5969 22.6667 17.3333 22.6667Z" fill="white"/>
</svg>
