<svg width="23" height="24" viewBox="0 0 23 24" fill="none" xmlns="http://www.w3.org/2000/svg">
<path d="M10.9024 18.0516C11.9504 18.0516 12.8794 17.318 13.202 16.2375C13.2237 16.1649 13.1934 16.0875 13.1284 16.0547C13.0634 16.0242 12.9876 16.05 12.953 16.1157C12.9487 16.1227 12.5805 16.7672 11.1405 16.9782C10.9348 17.0086 10.7248 17.025 10.5169 17.025C9.50999 17.025 9.05958 16.6125 9.05525 16.6102C9.00328 16.561 8.92749 16.561 8.87336 16.6078C8.82139 16.6547 8.8084 16.7391 8.84521 16.8024C9.28695 17.5711 10.073 18.0492 10.9024 18.0516Z" fill="#616164"/>
<path d="M16.9376 9.47387C15.9947 6.71163 13.5541 4.73764 10.6822 4.73764C7.82274 4.73764 5.38828 6.69377 4.43925 9.43815C4.38973 9.37785 4.33816 9.3198 4.28245 9.26844C4.82092 5.92338 7.48027 3.37997 10.6863 3.37997C13.878 3.37997 16.5291 5.89881 17.0861 9.21931C17.0283 9.2997 16.9788 9.38455 16.9376 9.47387ZM18.2703 8.5695C18.2579 8.5695 18.2476 8.57174 18.2352 8.57174C17.4327 4.8091 14.3628 2.0022 10.6843 2.0022C6.90466 2.0022 3.76461 4.96541 3.06934 8.88436C2.3782 9.02281 1.87481 9.67708 1.87893 10.4385V13.5536C1.87893 14.4267 2.52675 15.1346 3.32517 15.1346C3.77493 15.1346 4.17311 14.9046 4.43718 14.5518C5.07675 16.3761 6.36825 17.8499 8.02287 18.6315C8.0435 18.5868 8.06825 18.5444 8.09508 18.5042C8.1219 18.4685 8.15078 18.4372 8.17554 18.4372C8.20029 18.4372 8.22505 18.4461 8.24568 18.4618C7.86401 18.1536 6.48791 16.5771 6.18876 14.3731C6.05879 13.404 6.7293 12.4505 7.51122 12.2942C8.76558 12.0418 10.0138 11.7538 11.2681 11.5059C12.0666 11.3496 12.6112 10.874 12.9434 10.0857C13.0218 9.90038 13.1352 9.52747 13.1868 8.99154C13.1992 8.91115 13.2632 8.85086 13.3395 8.85086C13.389 8.85086 13.4344 8.87766 13.4633 8.92009L13.4984 8.89776C13.9935 9.67485 14.9735 11.3965 15.1138 13.2097C15.2747 15.2842 15.186 16.7044 13.7191 18.1581L13.7129 18.1648C13.6923 18.1893 13.6799 18.2206 13.6799 18.2541C13.6799 18.2965 13.7005 18.3367 13.7335 18.3591C13.7459 18.3635 13.7583 18.3724 13.7707 18.3769C13.781 18.3792 13.7893 18.3814 13.7996 18.3836C13.8099 18.3836 13.8181 18.3814 13.8264 18.3769C13.847 18.3658 13.8677 18.3524 13.8883 18.339C15.3861 17.4435 16.5126 15.963 17.0345 14.1989C17.2525 14.5465 17.587 14.7884 17.967 14.8733C17.3481 17.9303 14.827 19.8462 11.7055 20.1343C11.5075 19.6118 11.0371 19.2724 10.5172 19.2746C9.81158 19.2746 9.23804 19.8797 9.23804 20.6256C9.23804 21.3714 9.81158 21.9765 10.5172 21.9765C11.066 21.9788 11.5549 21.5992 11.7282 21.0364C15.3407 20.7194 18.2373 18.3948 18.8418 14.784C19.3927 14.5384 19.7516 13.9578 19.7516 13.3124V10.1661C19.7558 9.28407 19.0914 8.5695 18.2703 8.5695Z" fill="#616164"/>
</svg>
