<svg width="16" height="16" viewBox="0 0 16 16" fill="none" xmlns="http://www.w3.org/2000/svg">
<path d="M15.3307 0H1.27517C0.937153 0 0.664062 0.270675 0.664062 0.605706V14.5369C0.664062 14.872 0.937153 15.1426 1.27517 15.1426H15.3307C15.6687 15.1426 15.9418 14.872 15.9418 14.5369V0.605706C15.9418 0.270675 15.6687 0 15.3307 0ZM12.4146 5.48353C12.4203 5.57249 12.4203 5.66524 12.4203 5.7561C12.4203 8.53477 10.2852 11.7355 6.38368 11.7355C5.18056 11.7355 4.06528 11.3892 3.12569 10.7929C3.29757 10.8118 3.46181 10.8194 3.6375 10.8194C4.63056 10.8194 5.5434 10.4863 6.27101 9.92222C5.33906 9.90329 4.55608 9.29758 4.28871 8.46474C4.61528 8.51206 4.90937 8.51206 5.24549 8.42688C4.76562 8.33025 4.33431 8.07194 4.02482 7.69584C3.71534 7.31973 3.54676 6.84903 3.54774 6.3637V6.3372C3.82847 6.4943 4.15885 6.59084 4.50451 6.60409C4.21393 6.41214 3.97563 6.1521 3.81073 5.84701C3.64583 5.54192 3.55944 5.20122 3.5592 4.85511C3.5592 4.46329 3.66233 4.10555 3.84757 3.79513C4.3802 4.445 5.04483 4.97652 5.79828 5.35513C6.55173 5.73374 7.37713 5.95097 8.22083 5.9927C7.92101 4.56361 8.99809 3.4071 10.2929 3.4071C10.904 3.4071 11.454 3.66073 11.8417 4.06959C12.321 3.98062 12.7793 3.8027 13.188 3.5642C13.0295 4.05066 12.6972 4.4614 12.2561 4.72072C12.6839 4.67529 13.0964 4.55794 13.4783 4.39326C13.1899 4.81347 12.829 5.18636 12.4146 5.48353V5.48353Z" fill="#AAAAAA"/>
</svg>
