<svg width="232" height="37" viewBox="0 0 232 37" fill="none" xmlns="http://www.w3.org/2000/svg">
<path d="M7.56391 29.1344C7.29991 29.1344 6.98791 29.0864 6.62791 28.9904C6.29191 28.9184 5.95591 28.7744 5.61991 28.5584C5.28391 28.3664 5.00791 28.0784 4.79191 27.6944C4.57591 27.3344 4.46791 26.8544 4.46791 26.2544C4.46791 25.4144 4.67191 24.3104 5.07991 22.9424C5.48791 21.5504 5.95591 20.0144 6.48391 18.3344C6.89191 17.0384 7.28791 15.6944 7.67191 14.3024C8.05591 12.9104 8.36791 11.5184 8.60791 10.1264C8.87191 8.73444 9.00391 7.40244 9.00391 6.13044C9.00391 5.24244 8.96791 4.41444 8.89591 3.64644C8.84791 2.87844 8.66791 2.26644 8.35591 1.81044C8.06791 1.33044 7.56391 1.09044 6.84391 1.09044C6.17191 1.09044 5.59591 1.29444 5.11591 1.70244C4.65991 2.08644 4.27591 2.59044 3.96391 3.21444C3.67591 3.83844 3.45991 4.49844 3.31591 5.19444C3.19591 5.89044 3.13591 6.53844 3.13591 7.13844C3.13591 7.93044 3.24391 8.57844 3.45991 9.08244C2.52391 9.08244 1.86391 8.83044 1.47991 8.32644C1.09591 7.79844 0.903906 7.18644 0.903906 6.49044C0.903906 5.74644 1.07191 5.00244 1.40791 4.25844C1.76791 3.51444 2.24791 2.83044 2.84791 2.20644C3.47191 1.55844 4.17991 1.04244 4.97191 0.658439C5.76391 0.27444 6.60391 0.0824404 7.49191 0.0824404C8.97991 0.0824404 10.0839 0.670441 10.8039 1.84644C11.5479 2.99844 11.9199 4.54644 11.9199 6.49044C11.9199 8.24244 11.6679 10.1024 11.1639 12.0704C10.6839 14.0144 10.1439 15.9104 9.54391 17.7584C9.15991 18.9584 8.78791 20.1104 8.42791 21.2144C8.09191 22.2944 7.81591 23.2904 7.59991 24.2024C7.38391 25.1144 7.27591 25.9184 7.27591 26.6144C7.27591 27.0704 7.34791 27.4184 7.49191 27.6584C7.63591 27.8984 7.92391 28.0184 8.35591 28.0184C8.95591 28.0184 9.61591 27.7304 10.3359 27.1544C11.0799 26.6024 11.8239 25.8464 12.5679 24.8864C13.3359 23.9264 14.0679 22.8704 14.7639 21.7184C15.4839 20.5424 16.1319 19.3424 16.7079 18.1184C17.3079 16.8944 17.7999 15.7304 18.1839 14.6264C18.5919 13.5224 18.8439 12.5744 18.9399 11.7824C19.7319 11.7824 20.2839 11.9864 20.5959 12.3944C20.9319 12.8024 21.0999 13.1864 21.0999 13.5464C21.0999 13.9304 20.9439 14.5184 20.6319 15.3104C20.3199 16.1024 19.9479 16.9904 19.5159 17.9744C19.1559 18.8384 18.7839 19.7624 18.3999 20.7464C18.0399 21.7304 17.7279 22.7144 17.4639 23.6984C17.2239 24.6824 17.1039 25.6184 17.1039 26.5064C17.1039 26.9624 17.1639 27.3224 17.2839 27.5864C17.4039 27.8744 17.6799 28.0184 18.1119 28.0184C18.7839 28.0184 19.5639 27.6704 20.4519 26.9744C21.3399 26.3024 22.2519 25.3784 23.1879 24.2024C24.1479 23.0024 25.0719 21.6584 25.9599 20.1704C26.8719 18.6824 27.6879 17.1344 28.4079 15.5264C29.1279 13.8944 29.7039 12.2984 30.1359 10.7384C30.5679 9.17844 30.7839 7.73844 30.7839 6.41844C30.7839 5.21844 30.6039 4.34244 30.2439 3.79044C29.8839 3.21444 29.4039 2.84244 28.8039 2.67444C29.1399 2.09844 29.4879 1.67844 29.8479 1.41444C30.2319 1.15044 30.5799 1.01844 30.8919 1.01844C31.3959 1.01844 31.8879 1.34244 32.3679 1.99044C32.8479 2.63844 33.0879 3.64644 33.0879 5.01444C33.0879 6.33444 32.8359 7.83444 32.3319 9.51444C31.8519 11.1944 31.1919 12.9464 30.3519 14.7704C29.5119 16.5704 28.5519 18.3224 27.4719 20.0264C26.3919 21.7304 25.2639 23.2664 24.0879 24.6344C22.9119 26.0024 21.7479 27.0944 20.5959 27.9104C19.4439 28.7264 18.3759 29.1344 17.3919 29.1344C16.9359 29.1344 16.4679 29.0384 15.9879 28.8464C15.5079 28.6544 15.0999 28.3544 14.7639 27.9464C14.4519 27.5624 14.2959 27.0584 14.2959 26.4344C14.2959 26.0744 14.3559 25.6184 14.4759 25.0664C14.6199 24.4904 14.7999 23.8664 15.0159 23.1944C13.7919 24.9224 12.5319 26.3384 11.2359 27.4424C9.96391 28.5704 8.73991 29.1344 7.56391 29.1344ZM35.4622 27.5864C33.9982 27.5864 32.8942 27.1784 32.1502 26.3624C31.4302 25.5704 31.0702 24.5864 31.0702 23.4104C31.0702 22.3304 31.3342 21.1904 31.8622 19.9904C32.4142 18.7904 33.1342 17.6624 34.0222 16.6064C34.9342 15.5504 35.9302 14.6984 37.0102 14.0504C38.0902 13.3784 39.1582 13.0424 40.2142 13.0424C40.7662 13.0424 41.2702 13.1864 41.7262 13.4744C42.2062 13.7624 42.4462 14.3504 42.4462 15.2384C42.4462 16.1504 42.1702 17.0144 41.6182 17.8304C41.0902 18.6224 40.3822 19.3304 39.4942 19.9544C38.6302 20.5784 37.6702 21.0944 36.6142 21.5024C35.5822 21.8864 34.5502 22.1264 33.5182 22.2224C33.4702 22.4624 33.4342 22.6904 33.4102 22.9064C33.3862 23.1224 33.3742 23.3264 33.3742 23.5184C33.3742 23.8784 33.4102 24.2384 33.4822 24.5984C33.5782 24.9584 33.7342 25.2944 33.9502 25.6064C34.1662 25.8944 34.4542 26.1224 34.8142 26.2904C35.1982 26.4584 35.6662 26.5424 36.2182 26.5424C37.2502 26.5424 38.2702 26.2544 39.2782 25.6784C40.2862 25.0784 41.2222 24.2984 42.0862 23.3384C42.9502 22.3784 43.6822 21.3224 44.2822 20.1704L44.7142 20.4944C44.0662 21.9344 43.2382 23.1824 42.2302 24.2384C41.2462 25.2944 40.1662 26.1104 38.9902 26.6864C37.8382 27.2864 36.6622 27.5864 35.4622 27.5864ZM33.6982 21.5384C34.3462 21.3224 35.0782 21.0104 35.8942 20.6024C36.7102 20.1704 37.4902 19.6664 38.2342 19.0904C39.0022 18.5144 39.6262 17.8784 40.1062 17.1824C40.6102 16.4864 40.8622 15.7544 40.8622 14.9864C40.8622 14.7224 40.8142 14.5184 40.7182 14.3744C40.6222 14.2304 40.4182 14.1584 40.1062 14.1584C39.5302 14.1584 38.9182 14.3864 38.2702 14.8424C37.6222 15.2744 36.9982 15.8504 36.3982 16.5704C35.7982 17.2904 35.2582 18.0824 34.7782 18.9464C34.2982 19.8104 33.9382 20.6744 33.6982 21.5384ZM46.5505 27.0824C45.5185 27.0824 44.7745 26.7224 44.3185 26.0024C43.8865 25.3064 43.6705 24.4304 43.6705 23.3744C43.6705 22.2224 43.8865 20.8544 44.3185 19.2704C44.7505 17.6864 45.3145 16.0184 46.0105 14.2664C46.7305 12.5144 47.5105 10.8104 48.3505 9.15444C49.1905 7.47444 50.0305 5.95044 50.8705 4.58244C51.7105 3.21444 52.4785 2.12244 53.1745 1.30644C53.8945 0.49044 54.4585 0.0824404 54.8665 0.0824404C55.1305 0.0824404 55.3465 0.238441 55.5145 0.550441C55.6825 0.83844 55.8145 1.19844 55.9105 1.63044C56.0065 2.03844 56.0545 2.41044 56.0545 2.74644C56.0545 3.39444 55.8865 4.24644 55.5505 5.30244C55.2385 6.33444 54.7825 7.49844 54.1825 8.79444C53.6065 10.0664 52.9105 11.3624 52.0945 12.6824C51.3025 13.9784 50.4265 15.2264 49.4665 16.4264C48.5305 17.6264 47.5345 18.6584 46.4785 19.5224C46.3345 20.1704 46.2145 20.8064 46.1185 21.4304C46.0465 22.0304 46.0105 22.6064 46.0105 23.1584C46.0105 24.0944 46.1425 24.7904 46.4065 25.2464C46.6705 25.7024 47.0665 25.9304 47.5945 25.9304C48.2425 25.9304 48.8785 25.6424 49.5025 25.0664C50.1505 24.4904 50.7505 23.7704 51.3025 22.9064C51.8785 22.0184 52.3705 21.1064 52.7785 20.1704L53.3185 20.4584C52.3585 22.4984 51.3145 24.1184 50.1865 25.3184C49.0585 26.4944 47.8465 27.0824 46.5505 27.0824ZM46.8025 18.2984C47.6425 17.4584 48.4585 16.4984 49.2505 15.4184C50.0425 14.3144 50.7745 13.1744 51.4465 11.9984C52.1425 10.8224 52.7545 9.68244 53.2825 8.57844C53.8105 7.47444 54.2185 6.49044 54.5065 5.62644C54.7945 4.73844 54.9385 4.05444 54.9385 3.57444C54.9385 3.33444 54.9025 3.17844 54.8305 3.10644C54.7825 3.03444 54.7345 2.99844 54.6865 2.99844C54.4945 2.99844 54.1585 3.31044 53.6785 3.93444C53.2225 4.53444 52.6825 5.35044 52.0585 6.38244C51.4345 7.41444 50.7985 8.59044 50.1505 9.91044C49.5025 11.2304 48.8785 12.6104 48.2785 14.0504C47.7025 15.4904 47.2105 16.9064 46.8025 18.2984ZM55.9223 28.0184C54.7703 28.0184 53.8103 27.6344 53.0423 26.8664C52.2743 26.0984 51.8903 24.9464 51.8903 23.4104C51.8903 22.2104 52.1183 21.0464 52.5743 19.9184C53.0543 18.7664 53.6783 17.7344 54.4463 16.8224C55.2143 15.9104 56.0663 15.1904 57.0023 14.6624C57.9383 14.1104 58.8623 13.8344 59.7743 13.8344C60.7583 13.8344 61.4303 14.1224 61.7903 14.6984C62.1503 15.2744 62.3303 15.8744 62.3303 16.4984C62.3303 17.1944 62.1623 17.8064 61.8263 18.3344C61.5143 18.8624 61.0823 19.1264 60.5303 19.1264C60.1223 19.1264 59.7743 18.9464 59.4863 18.5864C59.8463 18.3944 60.1583 18.0104 60.4223 17.4344C60.6863 16.8344 60.8183 16.2704 60.8183 15.7424C60.8183 15.4544 60.7583 15.2384 60.6383 15.0944C60.5423 14.9264 60.3383 14.8424 60.0263 14.8424C59.3783 14.8424 58.7063 15.1304 58.0103 15.7064C57.3383 16.2824 56.7023 17.0264 56.1023 17.9384C55.5263 18.8504 55.0463 19.8104 54.6623 20.8184C54.3023 21.8264 54.1223 22.7744 54.1223 23.6624C54.1223 24.4064 54.3023 25.0904 54.6623 25.7144C55.0223 26.3384 55.7183 26.6504 56.7503 26.6504C57.7103 26.6504 58.6703 26.3864 59.6303 25.8584C60.6143 25.3304 61.5263 24.5744 62.3663 23.5904C63.2063 22.6064 63.8783 21.4544 64.3823 20.1344L64.8503 20.4944C64.2983 21.9344 63.5423 23.2304 62.5823 24.3824C61.6223 25.5104 60.5663 26.3984 59.4143 27.0464C58.2623 27.6944 57.0983 28.0184 55.9223 28.0184ZM66.191 27.1544C65.159 27.1544 64.427 26.8304 63.995 26.1824C63.563 25.5584 63.347 24.7904 63.347 23.8784C63.347 23.1344 63.467 22.3664 63.707 21.5744C63.947 20.7824 64.259 20.0384 64.643 19.3424C65.051 18.6464 65.495 18.0824 65.975 17.6504C66.479 17.2184 66.983 17.0024 67.487 17.0024C67.607 17.0024 67.727 17.0264 67.847 17.0744C67.991 17.0984 68.123 17.1344 68.243 17.1824C68.027 17.3744 67.763 17.7344 67.451 18.2624C67.163 18.7664 66.887 19.3544 66.623 20.0264C66.359 20.6744 66.131 21.3224 65.939 21.9704C65.771 22.6184 65.687 23.1704 65.687 23.6264C65.687 24.3464 65.807 24.8744 66.047 25.2104C66.287 25.5224 66.599 25.6784 66.983 25.6784C67.487 25.6784 68.087 25.4144 68.783 24.8864C69.479 24.3344 70.163 23.6384 70.835 22.7984C70.163 22.2464 69.635 21.5264 69.251 20.6384C68.891 19.7264 68.711 18.8024 68.711 17.8664C68.711 17.0744 68.843 16.3304 69.107 15.6344C69.395 14.9384 69.803 14.3864 70.331 13.9784C70.859 13.5464 71.495 13.3304 72.239 13.3304C73.223 13.3304 73.883 13.5944 74.219 14.1224C74.555 14.6504 74.723 15.3104 74.723 16.1024C74.723 17.0384 74.495 18.0824 74.039 19.2344C73.583 20.3624 73.007 21.4544 72.311 22.5104C72.743 22.7504 73.199 22.8704 73.679 22.8704C74.063 22.8704 74.495 22.7984 74.975 22.6544C75.455 22.4864 75.923 22.2104 76.379 21.8264C76.859 21.4424 77.243 20.9264 77.531 20.2784L77.963 20.6384C77.483 21.7664 76.799 22.5704 75.911 23.0504C75.047 23.5064 74.219 23.7344 73.427 23.7344C73.115 23.7344 72.815 23.7104 72.527 23.6624C72.239 23.5904 71.963 23.4944 71.699 23.3744C70.883 24.4544 69.983 25.3544 68.999 26.0744C68.039 26.7944 67.103 27.1544 66.191 27.1544ZM71.483 21.8624C72.083 20.9744 72.575 20.0504 72.959 19.0904C73.367 18.1064 73.571 17.1824 73.571 16.3184C73.571 15.6224 73.463 15.1184 73.247 14.8064C73.055 14.4704 72.803 14.3024 72.491 14.3024C72.011 14.3024 71.519 14.6504 71.015 15.3464C70.511 16.0424 70.259 16.9184 70.259 17.9744C70.259 18.6704 70.355 19.3784 70.547 20.0984C70.763 20.7944 71.075 21.3824 71.483 21.8624ZM94.9995 27.1184C94.1595 27.1184 93.5475 26.8544 93.1635 26.3264C92.7795 25.8224 92.5875 25.2104 92.5875 24.4904C92.5875 23.8904 92.6715 23.2904 92.8395 22.6904C93.0315 22.0904 93.2115 21.5024 93.3795 20.9264C93.5715 20.3504 93.6675 19.8344 93.6675 19.3784C93.6675 18.8984 93.5595 18.5624 93.3435 18.3704C93.1275 18.1784 92.8875 18.0824 92.6235 18.0824C92.0235 18.0824 91.3635 18.5504 90.6435 19.4864C89.9475 20.4224 89.0355 21.7424 87.9075 23.4464C87.5235 24.0224 87.1995 24.6104 86.9355 25.2104C86.6715 25.7864 86.4195 26.3144 86.1795 26.7944C85.9875 26.7944 85.7475 26.7704 85.4595 26.7224C85.1715 26.6744 84.9075 26.5904 84.6675 26.4704C84.4515 26.3744 84.3435 26.2424 84.3435 26.0744C84.3435 25.9064 84.4515 25.5104 84.6675 24.8864C84.9075 24.2384 85.1715 23.4944 85.4595 22.6544C85.7715 21.7904 86.0355 20.9264 86.2515 20.0624C86.4915 19.1744 86.6115 18.4184 86.6115 17.7944C86.6115 17.3864 86.5395 17.0624 86.3955 16.8224C86.2755 16.5584 86.0475 16.4264 85.7115 16.4264C85.1835 16.4264 84.5475 16.7504 83.8035 17.3984C83.0595 18.0224 82.2915 18.8504 81.4995 19.8824C80.7075 20.9144 79.9515 22.0544 79.2315 23.3024C78.5355 24.5264 77.9715 25.7504 77.5395 26.9744C77.3235 26.9744 77.0595 26.9384 76.7475 26.8664C76.4355 26.7944 76.1715 26.6984 75.9555 26.5784C75.7155 26.4584 75.5955 26.3384 75.5955 26.2184C75.5955 26.0744 75.7275 25.6544 75.9915 24.9584C76.2315 24.2384 76.5195 23.3864 76.8555 22.4024C77.1675 21.3944 77.4435 20.3744 77.6835 19.3424C77.9475 18.3104 78.0795 17.3984 78.0795 16.6064C78.2235 16.4384 78.4515 16.2704 78.7635 16.1024C79.0755 15.9344 79.3995 15.8504 79.7355 15.8504C80.0715 15.8504 80.3115 15.9344 80.4555 16.1024C80.6235 16.2704 80.7075 16.4984 80.7075 16.7864C80.7075 17.0984 80.6115 17.6384 80.4195 18.4064C80.2515 19.1504 80.0355 19.9784 79.7715 20.8904C80.2515 20.1224 80.7915 19.3424 81.3915 18.5504C82.0155 17.7344 82.6635 16.9904 83.3355 16.3184C84.0075 15.6464 84.6795 15.1064 85.3515 14.6984C86.0475 14.2664 86.7195 14.0504 87.3675 14.0504C88.1115 14.0504 88.6155 14.3264 88.8795 14.8784C89.1675 15.4064 89.3115 16.0424 89.3115 16.7864C89.3115 17.3864 89.2395 18.0224 89.0955 18.6944C88.9755 19.3424 88.8315 19.9544 88.6635 20.5304C88.4955 21.0824 88.3395 21.5264 88.1955 21.8624C88.6995 20.9504 89.2515 20.0744 89.8515 19.2344C90.4755 18.3704 91.1475 17.6744 91.8675 17.1464C92.5875 16.5944 93.3555 16.3184 94.1715 16.3184C94.9395 16.3184 95.4675 16.5464 95.7555 17.0024C96.0675 17.4584 96.2235 17.9984 96.2235 18.6224C96.2235 19.2464 96.1155 19.9304 95.8995 20.6744C95.6835 21.4184 95.4555 22.1384 95.2155 22.8344C94.9995 23.5304 94.8915 24.1304 94.8915 24.6344C94.8915 24.9464 94.9635 25.2344 95.1075 25.4984C95.2755 25.7384 95.5635 25.8584 95.9715 25.8584C96.6435 25.8584 97.2675 25.5584 97.8435 24.9584C98.4435 24.3344 98.9955 23.5904 99.4995 22.7264C100.003 21.8384 100.435 20.9864 100.795 20.1704L101.227 20.6744C100.843 21.6824 100.351 22.6904 99.7515 23.6984C99.1515 24.6824 98.4435 25.4984 97.6275 26.1464C96.8355 26.7944 95.9595 27.1184 94.9995 27.1184ZM104.017 27.5864C102.553 27.5864 101.449 27.1784 100.705 26.3624C99.9849 25.5704 99.6249 24.5864 99.6249 23.4104C99.6249 22.3304 99.8889 21.1904 100.417 19.9904C100.969 18.7904 101.689 17.6624 102.577 16.6064C103.489 15.5504 104.485 14.6984 105.565 14.0504C106.645 13.3784 107.713 13.0424 108.769 13.0424C109.321 13.0424 109.825 13.1864 110.281 13.4744C110.761 13.7624 111.001 14.3504 111.001 15.2384C111.001 16.1504 110.725 17.0144 110.173 17.8304C109.645 18.6224 108.937 19.3304 108.049 19.9544C107.185 20.5784 106.225 21.0944 105.169 21.5024C104.137 21.8864 103.105 22.1264 102.073 22.2224C102.025 22.4624 101.989 22.6904 101.965 22.9064C101.941 23.1224 101.929 23.3264 101.929 23.5184C101.929 23.8784 101.965 24.2384 102.037 24.5984C102.133 24.9584 102.289 25.2944 102.505 25.6064C102.721 25.8944 103.009 26.1224 103.369 26.2904C103.753 26.4584 104.221 26.5424 104.773 26.5424C105.805 26.5424 106.825 26.2544 107.833 25.6784C108.841 25.0784 109.777 24.2984 110.641 23.3384C111.505 22.3784 112.237 21.3224 112.837 20.1704L113.269 20.4944C112.621 21.9344 111.793 23.1824 110.785 24.2384C109.801 25.2944 108.721 26.1104 107.545 26.6864C106.393 27.2864 105.217 27.5864 104.017 27.5864ZM102.253 21.5384C102.901 21.3224 103.633 21.0104 104.449 20.6024C105.265 20.1704 106.045 19.6664 106.789 19.0904C107.557 18.5144 108.181 17.8784 108.661 17.1824C109.165 16.4864 109.417 15.7544 109.417 14.9864C109.417 14.7224 109.369 14.5184 109.273 14.3744C109.177 14.2304 108.973 14.1584 108.661 14.1584C108.085 14.1584 107.473 14.3864 106.825 14.8424C106.177 15.2744 105.553 15.8504 104.953 16.5704C104.353 17.2904 103.813 18.0824 103.333 18.9464C102.853 19.8104 102.493 20.6744 102.253 21.5384ZM124.529 27.6584C123.497 27.6584 122.705 27.3584 122.153 26.7584C121.601 26.1584 121.325 25.2704 121.325 24.0944C121.325 23.0384 121.517 21.7424 121.901 20.2064C122.309 18.6464 122.813 17.0504 123.413 15.4184C123.173 15.3704 122.945 15.3344 122.729 15.3104C122.513 15.2624 122.309 15.2024 122.117 15.1304V14.4824C122.309 14.5064 122.537 14.5304 122.801 14.5544C123.065 14.5784 123.365 14.6024 123.701 14.6264C124.205 13.3304 124.745 12.0824 125.321 10.8824C125.897 9.65844 126.461 8.57844 127.013 7.64244C127.589 6.68244 128.129 5.92644 128.633 5.37444C129.161 4.79844 129.605 4.51044 129.965 4.51044C130.157 4.51044 130.325 4.58244 130.469 4.72644C130.637 4.84644 130.721 5.03844 130.721 5.30244C130.721 5.71044 130.469 6.38244 129.965 7.31844C129.461 8.23044 128.837 9.32244 128.093 10.5944C127.349 11.8664 126.629 13.2464 125.933 14.7344C126.149 14.7344 126.365 14.7344 126.581 14.7344C126.821 14.7344 127.049 14.7344 127.265 14.7344C128.057 14.7344 128.885 14.7224 129.749 14.6984C130.637 14.6744 131.525 14.6144 132.413 14.5184V15.1664C131.093 15.3104 129.905 15.4184 128.849 15.4904C127.817 15.5624 126.893 15.5984 126.077 15.5984C125.981 15.5984 125.885 15.5984 125.789 15.5984C125.717 15.5984 125.633 15.5984 125.537 15.5984C124.985 16.8704 124.517 18.1784 124.133 19.5224C123.749 20.8664 123.557 22.1744 123.557 23.4464C123.557 24.4784 123.713 25.2224 124.025 25.6784C124.337 26.1104 124.853 26.3264 125.573 26.3264C126.821 26.3264 128.045 25.7744 129.245 24.6704C130.445 23.5664 131.501 22.0664 132.413 20.1704L132.881 20.5304C132.305 21.8744 131.573 23.0864 130.685 24.1664C129.821 25.2464 128.861 26.0984 127.805 26.7224C126.749 27.3464 125.657 27.6584 124.529 27.6584ZM134.218 27.1544C133.186 27.1544 132.454 26.8304 132.022 26.1824C131.59 25.5584 131.374 24.7904 131.374 23.8784C131.374 23.1344 131.494 22.3664 131.734 21.5744C131.974 20.7824 132.286 20.0384 132.67 19.3424C133.078 18.6464 133.522 18.0824 134.002 17.6504C134.506 17.2184 135.01 17.0024 135.514 17.0024C135.634 17.0024 135.754 17.0264 135.874 17.0744C136.018 17.0984 136.15 17.1344 136.27 17.1824C136.054 17.3744 135.79 17.7344 135.478 18.2624C135.19 18.7664 134.914 19.3544 134.65 20.0264C134.386 20.6744 134.158 21.3224 133.966 21.9704C133.798 22.6184 133.714 23.1704 133.714 23.6264C133.714 24.3464 133.834 24.8744 134.074 25.2104C134.314 25.5224 134.626 25.6784 135.01 25.6784C135.514 25.6784 136.114 25.4144 136.81 24.8864C137.506 24.3344 138.19 23.6384 138.862 22.7984C138.19 22.2464 137.662 21.5264 137.278 20.6384C136.918 19.7264 136.738 18.8024 136.738 17.8664C136.738 17.0744 136.87 16.3304 137.134 15.6344C137.422 14.9384 137.83 14.3864 138.358 13.9784C138.886 13.5464 139.522 13.3304 140.266 13.3304C141.25 13.3304 141.91 13.5944 142.246 14.1224C142.582 14.6504 142.75 15.3104 142.75 16.1024C142.75 17.0384 142.522 18.0824 142.066 19.2344C141.61 20.3624 141.034 21.4544 140.338 22.5104C140.77 22.7504 141.226 22.8704 141.706 22.8704C142.09 22.8704 142.522 22.7984 143.002 22.6544C143.482 22.4864 143.95 22.2104 144.406 21.8264C144.886 21.4424 145.27 20.9264 145.558 20.2784L145.99 20.6384C145.51 21.7664 144.826 22.5704 143.938 23.0504C143.074 23.5064 142.246 23.7344 141.454 23.7344C141.142 23.7344 140.842 23.7104 140.554 23.6624C140.266 23.5904 139.99 23.4944 139.726 23.3744C138.91 24.4544 138.01 25.3544 137.026 26.0744C136.066 26.7944 135.13 27.1544 134.218 27.1544ZM139.51 21.8624C140.11 20.9744 140.602 20.0504 140.986 19.0904C141.394 18.1064 141.598 17.1824 141.598 16.3184C141.598 15.6224 141.49 15.1184 141.274 14.8064C141.082 14.4704 140.83 14.3024 140.518 14.3024C140.038 14.3024 139.546 14.6504 139.042 15.3464C138.538 16.0424 138.286 16.9184 138.286 17.9744C138.286 18.6704 138.382 19.3784 138.574 20.0984C138.79 20.7944 139.102 21.3824 139.51 21.8624ZM157.366 29.1344C156.766 29.1344 156.202 28.9664 155.674 28.6304C155.146 28.2944 154.882 27.8624 154.882 27.3344C154.882 27.0704 154.942 26.7464 155.062 26.3624C155.182 26.0024 155.29 25.6664 155.386 25.3544C156.154 23.0024 156.874 20.8064 157.546 18.7664C158.218 16.7264 158.89 14.7464 159.562 12.8264C160.234 10.9064 160.942 8.98644 161.686 7.06644C162.454 5.14644 163.306 3.14244 164.242 1.05444C163.33 1.22244 162.514 1.47444 161.794 1.81044C161.098 2.12244 160.534 2.41044 160.102 2.67444C159.67 2.91444 159.382 3.03444 159.238 3.03444C159.142 3.03444 158.998 2.98644 158.806 2.89044C158.638 2.77044 158.482 2.63844 158.338 2.49444C158.194 2.32644 158.122 2.18244 158.122 2.06244C158.746 1.79844 159.478 1.51044 160.318 1.19844C161.182 0.886441 162.106 0.622441 163.09 0.40644C164.074 0.19044 165.07 0.0824404 166.078 0.0824404C167.134 0.0824404 168.202 0.226441 169.282 0.514441C170.386 0.80244 171.394 1.24644 172.306 1.84644C173.218 2.42244 173.95 3.14244 174.502 4.00644C175.054 4.87044 175.33 5.87844 175.33 7.03044C175.33 8.27844 175.054 9.35844 174.502 10.2704C173.95 11.1584 173.218 11.9144 172.306 12.5384C171.394 13.1384 170.41 13.6304 169.354 14.0144C168.298 14.3744 167.242 14.6624 166.186 14.8784C165.154 15.0704 164.23 15.2024 163.414 15.2744C162.598 15.3224 161.998 15.3464 161.614 15.3464H161.254C160.534 17.8184 159.838 20.2544 159.166 22.6544C158.518 25.0544 157.918 27.2144 157.366 29.1344ZM161.398 14.7704C162.718 14.6984 164.05 14.4824 165.394 14.1224C166.762 13.7624 168.01 13.2464 169.138 12.5744C170.266 11.8784 171.178 11.0264 171.874 10.0184C172.57 8.98644 172.918 7.78644 172.918 6.41844C172.918 5.12244 172.606 4.06644 171.982 3.25044C171.382 2.43444 170.578 1.83444 169.57 1.45044C168.586 1.04244 167.53 0.838439 166.402 0.838439C165.514 2.59044 164.65 4.69044 163.81 7.13844C162.97 9.58644 162.166 12.1304 161.398 14.7704ZM172.205 27.6944C171.461 27.6944 170.837 27.4424 170.333 26.9384C169.805 26.4584 169.541 25.7144 169.541 24.7064C169.541 23.8424 169.733 22.9184 170.117 21.9344C170.501 20.9264 171.029 19.9424 171.701 18.9824C172.373 17.9984 173.129 17.1104 173.969 16.3184C174.833 15.5024 175.733 14.8544 176.669 14.3744C177.629 13.8944 178.577 13.6544 179.513 13.6544C180.449 13.6544 181.229 13.9064 181.853 14.4104C182.477 14.8904 182.789 15.5384 182.789 16.3544C182.789 16.9544 182.621 17.3624 182.285 17.5784C181.973 17.7944 181.553 17.9024 181.025 17.9024C181.073 17.7104 181.109 17.5064 181.133 17.2904C181.181 17.0504 181.205 16.8344 181.205 16.6424C181.205 16.0904 181.073 15.6224 180.809 15.2384C180.545 14.8304 180.089 14.6264 179.441 14.6264C178.769 14.6264 178.085 14.8664 177.389 15.3464C176.693 15.8024 176.021 16.4264 175.373 17.2184C174.725 17.9864 174.149 18.8264 173.645 19.7384C173.141 20.6504 172.745 21.5504 172.457 22.4384C172.169 23.3264 172.025 24.1184 172.025 24.8144C172.025 25.7504 172.349 26.2184 172.997 26.2184C173.549 26.2184 174.149 25.9664 174.797 25.4624C175.445 24.9344 176.105 24.2744 176.777 23.4824C177.473 22.6664 178.133 21.8264 178.757 20.9624C179.381 20.0984 179.933 19.3064 180.413 18.5864C180.509 18.4424 180.569 18.3704 180.593 18.3704C180.737 18.3944 180.917 18.4424 181.133 18.5144C181.373 18.5864 181.577 18.6824 181.745 18.8024C181.913 18.9224 181.997 19.0784 181.997 19.2704C181.997 19.4864 181.889 19.7864 181.673 20.1704C181.457 20.5304 181.217 20.9504 180.953 21.4304C180.689 21.9104 180.449 22.4024 180.233 22.9064C180.017 23.3864 179.909 23.8424 179.909 24.2744C179.909 24.6344 180.005 24.9944 180.197 25.3544C180.389 25.6904 180.701 25.8584 181.133 25.8584C181.781 25.8584 182.633 25.3904 183.689 24.4544C184.745 23.4944 185.813 22.0664 186.893 20.1704L187.253 20.5304C186.749 21.8264 186.101 22.9664 185.309 23.9504C184.517 24.9344 183.665 25.7024 182.753 26.2544C181.865 26.8064 180.989 27.0824 180.125 27.0824C179.237 27.0824 178.577 26.8184 178.145 26.2904C177.737 25.7624 177.533 25.1864 177.533 24.5624C177.533 24.4184 177.545 24.2624 177.569 24.0944C177.593 23.9024 177.617 23.7104 177.641 23.5184C176.609 24.9104 175.661 25.9544 174.797 26.6504C173.957 27.3464 173.093 27.6944 172.205 27.6944ZM183.888 36.0824C183.696 36.0824 183.516 35.9744 183.348 35.7584C183.156 35.5664 183.012 35.3504 182.916 35.1104C182.82 34.8944 182.772 34.7624 182.772 34.7144C183.108 33.5384 183.444 32.4824 183.78 31.5464C184.092 30.6344 184.416 29.6864 184.752 28.7024C185.064 27.7424 185.376 26.6144 185.688 25.3184C186 23.9984 186.324 22.3664 186.66 20.4224C186.996 18.4784 187.332 16.0664 187.668 13.1864C187.692 12.9704 187.74 12.8144 187.812 12.7184C187.884 12.6224 188.064 12.5744 188.352 12.5744C188.976 12.5744 189.42 12.7544 189.684 13.1144C189.948 13.4504 190.08 13.8224 190.08 14.2304C190.08 14.5664 190.008 15.1664 189.864 16.0304C189.72 16.8944 189.516 17.9144 189.252 19.0904C189.66 18.2984 190.164 17.4944 190.764 16.6784C191.388 15.8624 192.096 15.1784 192.888 14.6264C193.68 14.0744 194.544 13.7984 195.48 13.7984C196.536 13.7984 197.4 14.1824 198.072 14.9504C198.768 15.6944 199.116 16.6784 199.116 17.9024C199.116 18.8384 198.9 19.8344 198.468 20.8904C198.06 21.9224 197.472 22.9064 196.704 23.8424C195.96 24.7544 195.072 25.4984 194.04 26.0744C193.008 26.6504 191.868 26.9384 190.62 26.9384C189.996 26.9384 189.492 26.8664 189.108 26.7224C188.724 26.5784 188.532 26.4344 188.532 26.2904C188.532 26.1944 188.616 26.1344 188.784 26.1104C188.976 26.1104 189.192 26.1104 189.432 26.1104C190.392 26.1104 191.304 25.8824 192.168 25.4264C193.056 24.9464 193.848 24.3224 194.544 23.5544C195.24 22.7864 195.78 21.9344 196.164 20.9984C196.572 20.0624 196.776 19.1384 196.776 18.2264C196.776 17.4584 196.608 16.8104 196.272 16.2824C195.96 15.7304 195.444 15.4544 194.724 15.4544C194.1 15.4544 193.476 15.6584 192.852 16.0664C192.252 16.4504 191.676 16.9544 191.124 17.5784C190.596 18.1784 190.116 18.8144 189.684 19.4864C189.276 20.1344 188.964 20.7224 188.748 21.2504C188.316 23.0504 187.884 24.7784 187.452 26.4344C187.02 28.1144 186.6 29.6264 186.192 30.9704C185.808 32.3384 185.46 33.4544 185.148 34.3184C184.812 35.1824 184.536 35.7104 184.32 35.9024C184.2 36.0224 184.056 36.0824 183.888 36.0824ZM201.947 27.6944C201.203 27.6944 200.579 27.4424 200.075 26.9384C199.547 26.4584 199.283 25.7144 199.283 24.7064C199.283 23.8424 199.475 22.9184 199.859 21.9344C200.243 20.9264 200.771 19.9424 201.443 18.9824C202.115 17.9984 202.871 17.1104 203.711 16.3184C204.575 15.5024 205.475 14.8544 206.411 14.3744C207.371 13.8944 208.319 13.6544 209.255 13.6544C210.191 13.6544 210.971 13.9064 211.595 14.4104C212.219 14.8904 212.531 15.5384 212.531 16.3544C212.531 16.9544 212.363 17.3624 212.027 17.5784C211.715 17.7944 211.295 17.9024 210.767 17.9024C210.815 17.7104 210.851 17.5064 210.875 17.2904C210.923 17.0504 210.947 16.8344 210.947 16.6424C210.947 16.0904 210.815 15.6224 210.551 15.2384C210.287 14.8304 209.831 14.6264 209.183 14.6264C208.511 14.6264 207.827 14.8664 207.131 15.3464C206.435 15.8024 205.763 16.4264 205.115 17.2184C204.467 17.9864 203.891 18.8264 203.387 19.7384C202.883 20.6504 202.487 21.5504 202.199 22.4384C201.911 23.3264 201.767 24.1184 201.767 24.8144C201.767 25.7504 202.091 26.2184 202.739 26.2184C203.291 26.2184 203.891 25.9664 204.539 25.4624C205.187 24.9344 205.847 24.2744 206.519 23.4824C207.215 22.6664 207.875 21.8264 208.499 20.9624C209.123 20.0984 209.675 19.3064 210.155 18.5864C210.251 18.4424 210.311 18.3704 210.335 18.3704C210.479 18.3944 210.659 18.4424 210.875 18.5144C211.115 18.5864 211.319 18.6824 211.487 18.8024C211.655 18.9224 211.739 19.0784 211.739 19.2704C211.739 19.4864 211.631 19.7864 211.415 20.1704C211.199 20.5304 210.959 20.9504 210.695 21.4304C210.431 21.9104 210.191 22.4024 209.975 22.9064C209.759 23.3864 209.651 23.8424 209.651 24.2744C209.651 24.6344 209.747 24.9944 209.939 25.3544C210.131 25.6904 210.443 25.8584 210.875 25.8584C211.523 25.8584 212.375 25.3904 213.431 24.4544C214.487 23.4944 215.555 22.0664 216.635 20.1704L216.995 20.5304C216.491 21.8264 215.843 22.9664 215.051 23.9504C214.259 24.9344 213.407 25.7024 212.495 26.2544C211.607 26.8064 210.731 27.0824 209.867 27.0824C208.979 27.0824 208.319 26.8184 207.887 26.2904C207.479 25.7624 207.275 25.1864 207.275 24.5624C207.275 24.4184 207.287 24.2624 207.311 24.0944C207.335 23.9024 207.359 23.7104 207.383 23.5184C206.351 24.9104 205.403 25.9544 204.539 26.6504C203.699 27.3464 202.835 27.6944 201.947 27.6944ZM217.446 36.0824C216.846 36.0824 216.318 35.9144 215.862 35.5784C215.406 35.2664 215.178 34.7984 215.178 34.1744C215.178 33.4064 215.37 32.7224 215.754 32.1224C216.138 31.5224 216.654 30.9704 217.302 30.4664C217.95 29.9624 218.694 29.4824 219.534 29.0264C220.374 28.5704 221.25 28.1144 222.162 27.6584C222.498 26.7704 222.834 25.7864 223.17 24.7064C223.53 23.6024 223.866 22.3904 224.178 21.0704C223.41 22.3184 222.582 23.3984 221.694 24.3104C220.83 25.1984 219.906 25.6424 218.922 25.6424C218.466 25.6424 218.01 25.5464 217.554 25.3544C217.122 25.1384 216.762 24.8144 216.474 24.3824C216.186 23.9504 216.042 23.3984 216.042 22.7264C216.042 22.0544 216.15 21.2744 216.366 20.3864C216.606 19.4984 216.894 18.6344 217.23 17.7944C217.566 16.9544 217.914 16.2584 218.274 15.7064C218.634 15.1544 218.946 14.8784 219.21 14.8784C219.306 14.8784 219.474 14.9144 219.714 14.9864C219.978 15.0584 220.218 15.1664 220.434 15.3104C220.674 15.4304 220.794 15.5624 220.794 15.7064C220.578 16.0184 220.338 16.4624 220.074 17.0384C219.81 17.6144 219.546 18.2624 219.282 18.9824C219.042 19.6784 218.838 20.3624 218.67 21.0344C218.502 21.7064 218.418 22.2824 218.418 22.7624C218.418 23.1944 218.514 23.5424 218.706 23.8064C218.898 24.0704 219.234 24.2024 219.714 24.2024C220.17 24.2024 220.674 23.9864 221.226 23.5544C221.802 23.0984 222.366 22.5224 222.918 21.8264C223.494 21.1304 224.022 20.3864 224.502 19.5944C224.574 19.3304 224.634 19.0664 224.682 18.8024C224.754 18.5144 224.814 18.2264 224.862 17.9384C224.934 17.6024 225.102 17.2184 225.366 16.7864C225.654 16.3304 226.098 16.1024 226.698 16.1024C226.818 16.1024 226.938 16.1144 227.058 16.1384C227.178 16.1384 227.31 16.1624 227.454 16.2104C227.454 16.5944 227.334 17.3144 227.094 18.3704C226.878 19.4024 226.554 20.6144 226.122 22.0064C225.714 23.3984 225.222 24.8264 224.646 26.2904C225.774 25.8584 226.878 25.1504 227.958 24.1664C229.038 23.1584 229.914 21.8264 230.586 20.1704L231.054 20.5304C230.694 21.6824 230.142 22.6904 229.398 23.5544C228.678 24.3944 227.862 25.1264 226.95 25.7504C226.038 26.3504 225.138 26.8544 224.25 27.2624C223.626 28.7984 222.942 30.2384 222.198 31.5824C221.478 32.9264 220.71 34.0064 219.894 34.8224C219.102 35.6624 218.286 36.0824 217.446 36.0824ZM217.266 34.9304C217.626 34.9304 218.226 34.4504 219.066 33.4904C219.93 32.5544 220.842 30.8984 221.802 28.5224C220.818 29.0504 219.906 29.5664 219.066 30.0704C218.226 30.5984 217.554 31.1624 217.05 31.7624C216.546 32.3624 216.294 33.0584 216.294 33.8504C216.294 34.0424 216.366 34.2704 216.51 34.5344C216.654 34.7984 216.906 34.9304 217.266 34.9304Z" fill="#D7B686"/>
</svg>
