<svg width="39" height="26" viewBox="0 0 39 26" fill="none" xmlns="http://www.w3.org/2000/svg">
<path d="M1.66636 0.197754H36.6484C36.8717 0.202174 37.0918 0.250789 37.2964 0.340332C37.5009 0.429875 37.6858 0.558701 37.8406 0.719727C37.9953 0.880752 38.1168 1.07083 38.1981 1.27881C38.2794 1.48679 38.3188 1.70887 38.3143 1.93213V23.6079C38.3232 24.0586 38.1526 24.4943 37.8402 24.8193C37.5278 25.1443 37.0991 25.3319 36.6484 25.3408H1.66636C1.21564 25.3319 0.786894 25.1443 0.474468 24.8193C0.162042 24.4943 -0.00849293 24.0586 0.000346514 23.6079V1.93213C-0.00416333 1.70887 0.0353878 1.48679 0.11668 1.27881C0.197971 1.07083 0.31939 0.880752 0.474101 0.719727C0.628813 0.558701 0.813726 0.429875 1.01829 0.340332C1.22286 0.250789 1.4431 0.202174 1.66636 0.197754V0.197754Z" fill="#353A40"/>
<path d="M22.6901 16.7621C22.4257 16.6277 22.2083 16.416 22.0662 16.1556C21.8957 15.837 21.8129 15.4792 21.8262 15.1181C21.8115 14.8719 21.8458 14.6252 21.9271 14.3925C22.0085 14.1597 22.1354 13.9455 22.3002 13.7621C22.4754 13.5952 22.683 13.466 22.9103 13.3827C23.1375 13.2994 23.3795 13.2635 23.6211 13.2777C23.8645 13.2621 24.1086 13.2963 24.3384 13.3783C24.5681 13.4603 24.7787 13.5885 24.9572 13.7548C25.1205 13.9347 25.246 14.1456 25.3265 14.3749C25.4071 14.6042 25.441 14.8472 25.4261 15.0897C25.441 15.4414 25.3724 15.7916 25.2261 16.1117C25.0939 16.3723 24.8881 16.5883 24.6342 16.7328C24.3368 16.8901 24.0033 16.9668 23.6671 16.955C23.3309 16.9671 22.9964 16.9011 22.6901 16.7621V16.7621ZM23.0961 14.3451C22.9671 14.5834 22.8997 14.85 22.8997 15.121C22.8997 15.3919 22.9671 15.6585 23.0961 15.8969C23.1641 15.9707 23.2467 16.0294 23.3386 16.0697C23.4305 16.11 23.5298 16.1312 23.6301 16.1312C23.7305 16.1312 23.8297 16.11 23.9216 16.0697C24.0135 16.0294 24.0961 15.9707 24.1641 15.8969C24.3156 15.6496 24.3824 15.3594 24.3541 15.0707C24.3757 14.8101 24.3049 14.5504 24.1542 14.3368C24.0881 14.2603 24.0054 14.2001 23.9126 14.16C23.8198 14.12 23.7192 14.1013 23.6182 14.1058C23.5187 14.1031 23.4198 14.123 23.3293 14.1644C23.2388 14.2059 23.159 14.268 23.0961 14.3451ZM13.1841 16.9188C13.0098 16.9017 12.8402 16.8522 12.6841 16.7728C12.5425 16.6956 12.4176 16.5911 12.3162 16.4657C12.2123 16.3467 12.1344 16.2077 12.0872 16.057C12.0258 15.8627 11.9922 15.6606 11.9872 15.4569V13.3388H13.0581V15.5067C13.0533 15.5891 13.0649 15.672 13.0922 15.7499C13.1195 15.8278 13.162 15.8994 13.2172 15.9608C13.3385 16.0651 13.4931 16.1224 13.6531 16.1224C13.8131 16.1224 13.9678 16.0651 14.0891 15.9608C14.1442 15.8988 14.1866 15.8264 14.2137 15.7479C14.2409 15.6695 14.2521 15.5866 14.2471 15.5038V13.3358H15.3181V15.454C15.3187 15.6582 15.2849 15.8611 15.2181 16.0541C15.1565 16.2377 15.0539 16.4047 14.9181 16.5429C14.7983 16.6734 14.6512 16.7757 14.4872 16.8427C14.2459 16.9266 13.9915 16.9668 13.7361 16.9608C13.5517 16.9571 13.3679 16.9428 13.1852 16.9179L13.1841 16.9188ZM28.3231 16.8949L27.0231 14.9428V16.8949H26.0131V13.3397H27.0131L28.3221 15.306V13.3397H29.3341V16.8949H28.3231ZM18.3451 16.8949L17.0452 14.9428V16.8949H16.0352V13.3397H17.0352L18.3431 15.306V13.3397H19.3551V16.8949H18.3451ZM20.1151 16.8856V13.3368H21.1951V16.8856H20.1151ZM11.9102 11.9047C11.6786 11.6648 11.5412 11.3499 11.5231 11.017L12.5452 10.952C12.5559 11.0907 12.6019 11.224 12.6791 11.3397C12.7348 11.4114 12.807 11.4685 12.8895 11.5062C12.972 11.544 13.0624 11.5617 13.1531 11.557C13.2811 11.5655 13.4078 11.5256 13.5082 11.4457C13.5457 11.4159 13.5762 11.3783 13.5973 11.3353C13.6184 11.2923 13.6297 11.2451 13.6302 11.1972C13.6308 11.1492 13.6207 11.102 13.6006 11.0585C13.5805 11.015 13.551 10.9763 13.5142 10.9457C13.3479 10.838 13.1602 10.7676 12.9641 10.7396C12.5987 10.6784 12.2533 10.5306 11.9572 10.308C11.8595 10.223 11.7819 10.117 11.73 9.99842C11.6781 9.87979 11.6532 9.75137 11.6571 9.62196C11.6576 9.43824 11.7115 9.25854 11.8121 9.10487C11.9261 8.93344 12.0888 8.80024 12.2792 8.72205C12.5517 8.6177 12.8426 8.57023 13.1342 8.58289C13.4911 8.55908 13.8464 8.64783 14.1501 8.8368C14.2727 8.93374 14.3731 9.05591 14.4448 9.19471C14.5166 9.33351 14.558 9.48595 14.5662 9.64198L13.5541 9.70301C13.5408 9.57013 13.4806 9.44623 13.3842 9.35389C13.2821 9.27596 13.1553 9.23739 13.0271 9.245C12.9265 9.23767 12.8265 9.26644 12.7451 9.32606C12.7152 9.35001 12.691 9.38028 12.6746 9.41493C12.6581 9.44957 12.6498 9.48741 12.6501 9.52577C12.6509 9.55571 12.6584 9.58505 12.6721 9.6117C12.6858 9.63836 12.7053 9.66195 12.7291 9.68006C12.8383 9.7496 12.9616 9.79389 13.0901 9.80994C13.4377 9.8743 13.7764 9.97967 14.0991 10.1239C14.2811 10.2111 14.4347 10.3481 14.5421 10.5189C14.635 10.6781 14.6827 10.8595 14.6802 11.0438C14.6814 11.2677 14.617 11.4869 14.4951 11.6747C14.3697 11.8685 14.1899 12.0208 13.9781 12.1127C13.7128 12.2198 13.4281 12.2709 13.1421 12.2621C12.7004 12.3082 12.2583 12.1794 11.9102 11.9037V11.9047ZM28.3241 12.1947L27.0242 10.2421V12.1947H26.0142V8.64002H27.0142L28.3231 10.6068V8.64002H29.3351V12.1947H28.3241ZM24.4491 12.1947L23.8751 11.1078C23.8289 11.0047 23.7627 10.912 23.6802 10.8348C23.6032 10.7798 23.5107 10.7507 23.4161 10.7518H23.3212V12.1947H22.2421V8.64002H24.0311C24.2878 8.62995 24.5444 8.65921 24.7921 8.72694C24.9661 8.78377 25.1158 8.89731 25.2172 9.04969C25.3283 9.22077 25.3845 9.42193 25.3782 9.62586C25.3827 9.80403 25.3402 9.98048 25.2551 10.1371C25.1727 10.2795 25.0558 10.3985 24.9152 10.4838C24.7977 10.5505 24.6704 10.5985 24.5381 10.6259C24.6373 10.6552 24.7317 10.6989 24.8181 10.7557C24.8824 10.8114 24.9398 10.8745 24.9891 10.9437C25.0462 11.0122 25.0968 11.0861 25.1401 11.1639L25.6602 12.1947H24.4491ZM23.3221 10.079H23.7751C23.8711 10.0721 23.9662 10.0557 24.0591 10.0306C24.1288 10.0163 24.1908 9.97696 24.2332 9.91981C24.2783 9.86031 24.3022 9.78743 24.3011 9.71278C24.3042 9.66342 24.2962 9.6141 24.2777 9.56825C24.2592 9.52239 24.2306 9.48101 24.1941 9.44764C24.0744 9.3741 23.9338 9.34229 23.7941 9.35682H23.3221V10.079ZM18.7222 12.1947V8.64002H21.6001V9.39881H19.8002V9.96375H21.4722V10.6898H19.8002V11.39H21.6552V12.1947H18.7222ZM16.0701 12.1947V9.51795H14.9751V8.64002H18.2401V9.51795H17.1401V12.1947H16.0701ZM8.20508 12.1947V8.64002H11.0831V9.39881H9.28308V9.96375H10.9541V10.6898H9.27515V11.39H11.1282V12.1947H8.20508ZM6.03809 12.1947L5.42908 9.95594L4.82214 12.1947H3.76917L2.99609 8.64002H4.01611L4.38318 10.6298L4.92114 8.64002H5.93713L6.47607 10.6278L6.84314 8.64002H7.85815L7.09216 12.1947H6.03809Z" fill="#ECD345"/>
<path d="M34.1248 16.957V8.57715H35.3247V16.957H34.1248ZM31.1348 16.957V8.57715H32.3347V16.957H31.1348Z" fill="#ECD345"/>
</svg>
