<svg width="16" height="12" viewBox="0 0 16 12" fill="none" xmlns="http://www.w3.org/2000/svg">
<path d="M14.9589 2.04507C14.8719 1.70154 14.7014 1.38826 14.4644 1.13658C14.2274 0.884901 13.9323 0.703656 13.6085 0.610982C12.4166 0.270996 7.63889 0.270996 7.63889 0.270996C7.63889 0.270996 2.86117 0.270996 1.6693 0.609174C1.34537 0.701547 1.05005 0.882692 0.813006 1.13442C0.575964 1.38614 0.405542 1.69958 0.318855 2.04326C-5.96046e-08 3.30917 0 5.94949 0 5.94949C0 5.94949 -5.96046e-08 8.58981 0.318855 9.8539C0.494482 10.552 1.01283 11.1017 1.6693 11.288C2.86117 11.628 7.63889 11.628 7.63889 11.628C7.63889 11.628 12.4166 11.628 13.6085 11.288C14.2666 11.1017 14.7833 10.552 14.9589 9.8539C15.2778 8.58981 15.2778 5.94949 15.2778 5.94949C15.2778 5.94949 15.2778 3.30917 14.9589 2.04507ZM6.12134 8.37279V3.52618L10.0772 5.9314L6.12134 8.37279Z" fill="#AAAAAA"/>
</svg>
