<svg width="176" height="169" viewBox="0 0 176 169" fill="none" xmlns="http://www.w3.org/2000/svg">
<g opacity="0.5">
<path d="M0 77.1152L175 77.1152" stroke="#E3C08D"/>
<path d="M0 85.3779L175 85.3779" stroke="#E3C08D"/>
<path d="M0 93.6398L175 93.6398" stroke="#E3C08D"/>
<path d="M0 101.902L175 101.902" stroke="#E3C08D"/>
<path d="M0 110.164L175 110.164" stroke="#E3C08D"/>
<path d="M0 118.427L175 118.427" stroke="#E3C08D"/>
<path d="M0 126.689L175 126.689" stroke="#E3C08D"/>
<path d="M0 134.951H175" stroke="#E3C08D"/>
<path d="M0 143.214H175" stroke="#E3C08D"/>
<path d="M0 151.476H175" stroke="#E3C08D"/>
<path d="M0 159.738H175" stroke="#E3C08D"/>
<path d="M0 168H175" stroke="#E3C08D"/>
<path d="M174.602 3.8147e-06L174.602 77.1148" stroke="#E3C08D"/>
<path d="M167.602 3.8147e-06L167.602 77.1148" stroke="#E3C08D"/>
<path d="M160.602 3.8147e-06L160.602 77.1148" stroke="#E3C08D"/>
<path d="M153.602 3.8147e-06L153.602 77.1148" stroke="#E3C08D"/>
<path d="M146.602 3.8147e-06L146.602 77.1148" stroke="#E3C08D"/>
<path d="M139.602 3.8147e-06L139.602 77.1148" stroke="#E3C08D"/>
<path d="M132.602 3.8147e-06L132.602 77.1148" stroke="#E3C08D"/>
<path d="M125.602 0L125.602 77.1148" stroke="#E3C08D"/>
<path d="M118.602 3.8147e-06L118.602 77.1148" stroke="#E3C08D"/>
<path d="M111.602 3.8147e-06L111.602 77.1148" stroke="#E3C08D"/>
<path d="M104.602 0L104.602 77.1148" stroke="#E3C08D"/>
<path d="M97.6016 0L97.6016 77.1148" stroke="#E3C08D"/>
</g>
</svg>
