<?xml version="1.0" ?><svg id="Layer_1" style="enable-background:new 0 0 200 200;" version="1.1" viewBox="0 0 200 200" xml:space="preserve" xmlns="http://www.w3.org/2000/svg" xmlns:xlink="http://www.w3.org/1999/xlink"><style type="text/css">
	.st0{fill:url(#SVGID_1_);}
	.st1{fill:url(#SVGID_2_);}
</style><g><linearGradient gradientUnits="userSpaceOnUse" id="SVGID_1_" x1="170.4592" x2="31.2292" y1="177.4471" y2="38.217"><stop offset="0" style="stop-color:#007FE2"/><stop offset="1" style="stop-color:#39D3B8"/></linearGradient><path class="st0" d="M171.413,39.408H28.587c-1.981,0-3.587,1.606-3.587,3.587v63.993c0,1.981,1.606,3.587,3.587,3.587   s3.587-1.606,3.587-3.587V46.582h135.653v115.553l-44.592-45.951c-1.351-1.391-3.797-1.391-5.147,0l-18.455,19.019L67.19,101.77   c-1.351-1.391-3.797-1.391-5.147,0l-36.029,37.128c-0.055,0.057-0.094,0.123-0.144,0.182c-0.097,0.114-0.196,0.226-0.278,0.351   c-0.061,0.093-0.106,0.192-0.157,0.289c-0.058,0.109-0.12,0.214-0.167,0.329c-0.046,0.113-0.073,0.229-0.107,0.344   c-0.032,0.108-0.07,0.213-0.091,0.326c-0.027,0.143-0.034,0.288-0.044,0.433c-0.006,0.082-0.024,0.159-0.024,0.242v29.584   c0,1.981,1.606,3.587,3.587,3.587h112.699c1.981,0,3.587-1.606,3.587-3.587s-1.606-3.587-3.587-3.587H32.173V142.85l32.443-33.432   l39.207,40.402c0.703,0.724,1.638,1.089,2.574,1.089c0.899,0,1.802-0.337,2.498-1.013c1.421-1.379,1.456-3.65,0.076-5.072   l-4.341-4.473l16.031-16.52l48.179,49.647c0.689,0.71,1.622,1.089,2.575,1.089c0.453,0,0.909-0.086,1.346-0.263   c1.353-0.549,2.239-1.863,2.239-3.324V42.995C175,41.014,173.394,39.408,171.413,39.408z"/><linearGradient gradientUnits="userSpaceOnUse" id="SVGID_2_" x1="201.5168" x2="62.2868" y1="146.3895" y2="7.1595"><stop offset="0" style="stop-color:#007FE2"/><stop offset="1" style="stop-color:#39D3B8"/></linearGradient><path class="st1" d="M135.311,96.919c9.227,0,16.734-7.507,16.734-16.735s-7.507-16.734-16.734-16.734s-16.734,7.507-16.734,16.734   S126.084,96.919,135.311,96.919z M135.311,70.623c5.272,0,9.561,4.289,9.561,9.561c0,5.272-4.289,9.561-9.561,9.561   s-9.561-4.289-9.561-9.561C125.75,74.912,130.039,70.623,135.311,70.623z"/></g></svg>